<?xml version="1.0" encoding="UTF-8" standalone="no"?>
<!-- Created with Inkscape (http://www.inkscape.org/) -->

<svg
   width="99.749207"
   height="67.740944"
   viewBox="0 0 71.249383 48.386355"
   version="1.1"
   id="svg5"
   xml:space="preserve"
   inkscape:export-filename="logo.svg"
   inkscape:export-xdpi="96"
   inkscape:export-ydpi="96"
   xmlns:inkscape="http://www.inkscape.org/namespaces/inkscape"
   xmlns:sodipodi="http://sodipodi.sourceforge.net/DTD/sodipodi-0.dtd"
   xmlns="http://www.w3.org/2000/svg"
   xmlns:svg="http://www.w3.org/2000/svg"><sodipodi:namedview
     id="namedview7"
     pagecolor="#ffffff"
     bordercolor="#000000"
     borderopacity="0.25"
     inkscape:showpageshadow="2"
     inkscape:pageopacity="0.0"
     inkscape:pagecheckerboard="0"
     inkscape:deskcolor="#d1d1d1"
     inkscape:document-units="px"
     showgrid="false" /><defs
     id="defs2" /><g
     inkscape:label="Capa 1"
     inkscape:groupmode="layer"
     id="layer1"
     transform="translate(-8.864959,-4.5021308)"><g
       id="g2887"
       transform="matrix(0.21876394,0,0,0.16062749,242.31582,34.603832)"><g
         id="g4005"
         transform="matrix(0.8958092,-0.00857465,0.00459142,0.90193083,-88.513093,-9.2586865)"><path
           style="fill:#f3c605;stroke-width:0.714285"
           d="m -1090.1577,-17.299996 c -0.4663,-0.561871 -0.7467,-2.24937 -0.6232,-3.749998 l 0.2247,-2.728419 h 17.1428 17.1429 l 0.2306,2.828655 c 0.3705,4.543668 -0.1155,4.671339 -17.7797,4.671339 -12.5618,0 -15.6506,-0.193128 -16.3381,-1.021577 z m 325.39998,0.100235 c -0.9207,-0.673235 -1.1979,-1.683077 -1.02937,-3.749997 l 0.23063,-2.828655 h 17.49999 17.49999 l 0.22466,2.728419 c 0.39238,4.765304 0.3696,4.771575 -17.31845,4.771575 -11.81186,0 -16.1683,-0.234621 -17.10745,-0.921342 z m -236.36758,-8.100058 c -0.2763,-0.276321 -0.5024,-1.045207 -0.5024,-1.708635 0,-1.383999 3.39477,-1.849255 18.92854,-2.594198 10.28945,-0.493442 12.51838,-1.214477 14.67176,-4.746146 2.1683,-3.556119 1.8346,-6.637517 -1.02891,-9.501029 -1.33571,-1.335713 -3.02321,-2.432377 -3.75,-2.437034 -4.6416,-0.02971 -24.08554,-2.225491 -25.2565,-2.852169 -2.55179,-1.365699 -1.85076,-5.381647 2.39991,-13.747383 5.45239,-10.730814 9.88121,-17.099216 17.08495,-24.567197 18.12571,-18.79059 42.04521,-28.8075 68.82089,-28.82052 36.42732,-0.0177 68.39756,20.267662 85.45064,54.219145 3.43631,6.841438 4.20529,10.641699 2.44838,12.099805 -1.00166,0.831307 -24.45706,3.656019 -29.58814,3.563276 -1.66796,-0.03014 -3.78956,0.441128 -4.71466,1.047285 -1.76422,1.155964 -4.03841,5.236103 -4.03841,7.245352 0,2.12357 2.13638,5.364725 3.76299,5.708932 0.87678,0.185542 9.30843,0.853999 18.737,1.48547 9.42856,0.631478 17.41113,1.411542 17.73903,1.733484 0.3279,0.321943 0.48862,1.345635 0.35714,2.27487 l -0.23904,1.689527 -24.8144,0.187822 -24.81439,0.187814 -6.07529,-5.642289 c -6.39944,-5.943346 -13.89209,-10.405142 -21.08158,-12.553891 -6.28659,-1.878898 -17.175,-2.234634 -24.28731,-0.793492 -10.4381,2.115027 -22.4666,8.776401 -28.1025,15.563146 l -2.53355,3.05089 -24.53588,0.204779 c -13.49474,0.112636 -24.76197,-0.02129 -25.03827,-0.297614 z m 193.37257,-43.519097 c -1.08289,-2.835498 -1.11029,-3.387562 -0.21268,-4.285168 1.02442,-1.024421 49.40287,-21.339214 58.7106,-24.653404 4.85167,-1.727527 4.8777,-1.728877 5.92387,-0.306585 1.30504,1.774227 1.97775,4.325246 1.48156,5.618295 -0.20654,0.53825 -9.32155,4.52984 -20.25559,8.870208 -10.93402,4.340369 -25.16952,10.16855 -31.63443,12.951527 -6.4649,2.782969 -11.98296,5.059946 -12.26234,5.059946 -0.27938,0 -1.06732,-1.46467 -1.75099,-3.254819 z m -218.16067,-1.455278 c -4.9107,-2.148691 -18.6527,-7.799251 -30.5378,-12.556798 -11.8851,-4.757546 -22.1004,-9.009236 -22.7007,-9.448193 -0.9512,-0.695571 -0.9665,-1.159006 -0.119,-3.607054 0.5349,-1.544913 1.4708,-3.123298 2.08,-3.507519 0.8233,-0.519371 6.9469,1.698299 23.871,8.644958 12.52,5.138946 26.837,11.004028 31.8155,13.033512 4.9785,2.029484 9.1923,4.066961 9.3639,4.527725 0.5796,1.555706 -2.2022,6.912088 -3.5651,6.864631 -0.7036,-0.0245 -5.2971,-1.80257 -10.2078,-3.951262 z m 6.9643,-55.290716 c -13.6518,-13.76366 -24.8214,-25.4679 -24.8214,-26.00942 0,-0.9718 4.5663,-5.41827 5.5643,-5.41827 0.866,0 50.86419,50.30833 50.86419,51.17969 0,1.02354 -4.74818,5.24468 -5.91771,5.26084 -0.4774,0.006 -12.03768,-11.24919 -25.68938,-25.01284 z m 188.52633,22.99747 c -1.05565,-1.10185 -1.91935,-2.46965 -1.91935,-3.03954 0,-1.21094 49.25792,-50.67134 50.46391,-50.67134 1.15911,0 5.25033,3.96189 5.25033,5.08435 0,1.35076 -49.39164,50.6299 -50.74548,50.6299 -0.62154,0 -1.99377,-0.90151 -3.04941,-2.00337 z m -130.27664,-21.74661 c -0.63012,-0.8333 -3.504,-8.0283 -19.16089,-47.97086 -3.3739,-8.6072 -6.30753,-16.51535 -6.5192,-17.57367 -0.34499,-1.72496 -0.0701,-2.05013 2.65406,-3.14014 2.49455,-0.99813 3.1973,-1.0489 3.92319,-0.28346 0.786,0.82883 5.45267,12.46141 21.50963,53.617 2.56864,6.58365 4.49016,12.43956 4.27006,13.01314 -0.2201,0.57356 -1.57841,1.53514 -3.01848,2.13684 -3.13932,1.3117 -2.8314,1.29477 -3.65837,0.20115 z m 96.36551,-0.25012 c -1.29191,-0.56453 -2.5176,-1.46597 -2.72375,-2.00317 -0.5156,-1.34365 24.77746,-64.77955 26.01872,-65.25586 1.64544,-0.63142 6.16457,0.8125 6.3995,2.04473 0.21737,1.14005 -21.96232,57.84857 -24.80467,63.42003 -1.66219,3.25817 -1.59564,3.23375 -4.8898,1.79427 z m -74.07204,-8.32131 c -1.19938,-5.11528 -7.51155,-37.19465 -7.34738,-37.34043 0.74341,-0.66009 6.19927,-1.02787 6.56118,-0.44228 0.56483,0.91391 7.56437,34.71199 7.56437,36.52542 0,0.97319 -0.77403,1.58368 -2.67857,2.11259 -3.60108,1.00007 -3.66784,0.98615 -4.0996,-0.8553 z m 51.06761,0.25463 c -0.98008,-0.27271 -1.86967,-0.96388 -1.97687,-1.53595 -0.30342,-1.61924 6.70244,-35.69798 7.50341,-36.49894 1.19281,-1.19281 5.89827,0.0509 5.89827,1.55903 0,1.75165 -6.38127,35.74541 -6.85353,36.50954 -0.42801,0.69253 -2.00308,0.68092 -4.57128,-0.0337 z m -27.14659,-37.21888 v -34.99998 h 4.28571 4.28571 v 34.99998 34.99997 h -4.28571 -4.28571 z"
           id="path438" /><path
           style="fill:#01aff5;stroke-width:0.714285"
           d="m -919.48492,126.11183 c -15.14507,-1.44281 -30.91707,-5.82797 -44.28568,-12.31295 l -6.78571,-3.29168 29.76792,-0.18636 c 16.37235,-0.1025 43.37233,-0.1025 59.99995,0 l 30.23204,0.18636 -6.17231,2.99385 c -19.33097,9.37635 -44.21624,14.37701 -62.75621,12.61078 z m -72.49994,-29.326924 c -1.78723,-0.428235 -6.07143,-4.452832 -6.07143,-5.703524 0,-1.232863 173.9139,-1.396299 174.67541,-0.164143 0.64787,1.048271 -2.38354,4.201226 -5.1883,5.396318 -1.90519,0.811785 -15.961,0.965192 -82.1428,0.896513 -43.91438,-0.04557 -80.48717,-0.236892 -81.27288,-0.425164 z m -51.69894,-14.244604 c -3.3493,-1.705713 -5.0808,-4.834682 -5.0841,-9.187071 0,-6.698074 4.1266,-11.060278 10.4754,-11.060278 4.7692,0 6.5362,0.987771 10.8511,6.065631 l 1.6864,1.984513 44.54196,-0.332428 c 30.04947,-0.224264 44.78145,-0.09298 45.27793,0.403499 1.00343,1.003435 0.92912,4.257004 -0.12122,5.307347 -0.64834,0.648335 -11.70521,0.857142 -45.38771,0.857142 h -44.53056 l -3.5817,3.350233 c -3.271,3.059626 -3.9344,3.371483 -7.648,3.595312 -2.8359,0.170928 -4.7964,-0.126772 -6.4795,-0.9839 z m 9.6886,-5.371867 c 3.783,-3.553905 1.1037,-9.875486 -4.1856,-9.875486 -3.5858,0 -5.5897,1.968042 -5.5897,5.489675 0,5.315375 5.9461,7.983173 9.7753,4.385811 z m 244.86733,5.212339 c -1.17857,-0.734464 -3.08692,-2.340405 -4.24078,-3.568755 l -2.09791,-2.233362 h -44.84987 -44.84986 l -1.17005,-1.785713 c -1.06431,-1.624349 -1.06931,-1.939449 -0.0553,-3.487005 l 1.11473,-1.701284 44.87381,0.377907 44.8738,0.377906 2.03347,-2.665998 c 2.91674,-3.824047 5.855,-5.395689 10.0934,-5.398846 6.79182,-0.005 11.06305,4.128219 11.05761,10.700464 -0.003,3.880047 -1.91228,7.314838 -5.16937,9.300708 -3.04965,1.859398 -8.69916,1.900248 -11.61366,0.08398 z m 10.30529,-5.541303 c 3.1508,-4.00559 0.74149,-9.546522 -4.15102,-9.546522 -4.79926,0 -7.63231,4.331926 -5.51314,8.429958 1.29271,2.499827 1.98335,2.865491 5.55702,2.942213 2.02613,0.0435 2.96522,-0.373936 4.10714,-1.825649 z M -994.17291,61.027068 c -0.81056,-0.678764 -4.09856,-4.930539 -7.30669,-9.448393 -3.2081,-4.517854 -6.6561,-9.098208 -7.6622,-10.178564 l -1.8294,-1.964284 h -21.7851 -21.7851 l -2.8114,2.868176 c -3.3313,3.398598 -5.3549,4.275597 -9.8571,4.272004 -8.0568,-0.0064 -13.0579,-7.710009 -9.867,-15.198832 1.7233,-4.044397 4.2429,-5.743167 9.0321,-6.089581 5.31,-0.384092 7.9244,0.640164 10.7544,4.213304 l 2.1687,2.738277 24.1729,0.205471 c 22.349,0.189971 24.2831,0.305157 25.6319,1.526635 0.8024,0.726635 4.432,5.708774 8.06578,11.07142 3.63376,5.362639 6.94807,9.986407 7.36512,10.275036 0.41705,0.288628 36.01922,0.529699 79.11593,0.535713 l 78.35765,0.01094 7.22949,-10.345799 c 3.97623,-5.690189 8.05324,-10.993757 9.06004,-11.785706 1.75129,-1.377556 2.85031,-1.439906 25.38186,-1.439906 h 23.55131 l 3.35302,-3.571426 c 3.35247,-3.570826 3.35382,-3.571426 7.95949,-3.568755 7.64133,0.0043 11.39217,3.464398 11.39217,10.508707 0,6.804502 -4.11398,10.913863 -10.92833,10.91607 -4.12208,0.0014 -6.53366,-1.154427 -9.54642,-4.575168 l -2.26047,-2.566576 h -22.1298 -22.12981 l -2.03828,2.359162 c -1.12104,1.297535 -4.60467,6.101689 -7.74138,10.675892 -3.13671,4.574204 -6.44647,8.655437 -7.35503,9.069401 -1.12717,0.513578 -27.4515,0.747628 -82.86826,0.736785 -75.89216,-0.01486 -81.31294,-0.09679 -82.69009,-1.249999 z m -68.63049,-21.199992 c 2.468,-2.287248 2.5241,-5.536417 0.1368,-7.923708 -3.2629,-3.262848 -9.077,-1.817656 -10.0235,2.491455 -1.263,5.750532 5.5211,9.4781 9.8867,5.432253 z m 311.43632,0.271193 c 4.03926,-3.177283 1.4991,-9.94815 -3.73214,-9.94815 -3.49445,0 -5.81438,2.308991 -5.81438,5.786946 0,3.141369 2.53244,5.641617 5.71428,5.641617 1.07261,0 2.79712,-0.666185 3.83224,-1.480413 z m -233.87861,-0.708978 c -1.14672,-1.146721 -1.36819,-1.98152 -0.99484,-3.749997 1.48937,-7.054788 10.9412,-17.356816 19.83482,-21.61897 5.64026,-2.70302 7.69646,-2.992512 9.3698,-1.319171 2.4054,2.405406 1.50794,3.552633 -5.42833,6.939038 -6.77009,3.305283 -14.10172,10.121607 -16.53439,15.372275 -1.84346,3.978932 -3.17018,5.851931 -4.14513,5.851931 -0.34475,0 -1.29062,-0.663799 -2.10193,-1.475106 z m 144.16893,0.225107 c -0.6044,-0.6875 -1.81798,-2.696427 -2.69683,-4.464283 -3.42268,-6.884852 -9.10143,-12.142084 -17.75139,-16.433788 -3.44873,-1.711091 -4.38855,-2.524948 -4.38855,-3.800361 0,-0.892635 0.38572,-2.008691 0.85714,-2.48012 4.17079,-4.1707826 21.873,8.420858 26.96201,19.178179 2.53272,5.353718 2.65254,6.45921 0.87459,8.068237 -1.66196,1.504056 -2.48783,1.489521 -3.85697,-0.06786 z m -81.40288,-10.918871 c -11.70678,-2.878705 -20.68327,-8.640893 -27.83591,-17.868422 -2.37153,-3.059477 -5.16373,-5.8881249 -6.20489,-6.2858746 -1.04116,-0.3977497 -7.83944,-1.9015986 -15.1073,-3.3418762 -7.26785,-1.44028463 -17.32466,-3.5462188 -22.34848,-4.6798537 -16.72088,-3.7731258 -17.16698,-3.7978901 -21.75658,-1.2076634 -5.145,2.9036622 -11.1396,3.0731978 -16.4015,0.4638496 -5.0413,-2.499991 -5.9914,-4.843975 -5.7547,-14.1969607 l 0.1899,-7.499995 3.9285,-0.357142 3.9286,-0.357143 0.2198,-3.860961 c 0.1482,-2.605177 -0.084,-4.05364 -0.7143,-4.453347 -0.5137,-0.325807 -5.9162,-0.637693 -12.0055,-0.693078 -21.3097,-0.193814 -31.7857,-0.874078 -31.7857,-2.064034 0,-1.304685 2.394,-1.610649 25.297,-3.233162 13.8872,-0.983814 17.0388,-1.409542 18.5714,-2.508756 3.2293,-2.316069 6.412,-2.417812 10.4173,-0.333021 3.3284,1.732442 4.849,1.947384 22.34667,3.158848 10.32638,0.714949 18.97816,1.502834 19.22618,1.750856 0.24802,0.248021 0.23662,0.665263 -0.0253,0.927206 -0.57758,0.577578 -13.20279,1.562878 -28.69035,2.239063 l -11.4286,0.498964 v 4.285711 4.285711 l 3.3886,0.217536 c 3.9378,0.252792 5.2127,1.780963 4.5285,5.428081 -0.2567,1.368242 -0.066,2.77627 0.4773,3.518876 0.8385,1.146578 3.1604,1.223107 31.45679,1.036728 l 30.55153,-0.201228 4.79614,-5.307968 c 9.14612,-10.122178 18.61141,-14.334875 32.20826,-14.334875 13.24216,0 21.77832,3.689669 31.3625,13.556112 l 5.91261,6.086731 10.51595,0.189807 c 5.78378,0.1044 19.67667,-0.05629 30.87309,-0.357143 l 20.35712,-0.546949 0.21266,-4.464283 0.21265,-4.464282 h 3.44988 c 4.30404,0 5.20195,-1.000928 4.91621,-5.480218 l -0.21997,-3.448347 -3.92857,-0.495321 c -2.16072,-0.272429 -11.13884,-0.829128 -19.95138,-1.237107 -14.38643,-0.666028 -18.35386,-1.271827 -17.02593,-2.599755 0.23508,-0.235085 9.24391,-1.018271 20.01961,-1.74042 17.16919,-1.150613 19.89306,-1.496413 22.02494,-2.796091 3.18252,-1.940184 7.44847,-1.915048 10.64703,0.06271 2.09848,1.297564 4.7944,1.750335 16.7857,2.819106 7.85714,0.700292 16.27371,1.289177 18.70349,1.308627 4.82343,0.03864 8.7139,1.129935 7.66281,2.149499 -0.35861,0.347856 -10.10341,0.990456 -21.6551,1.427999 -11.55169,0.437542 -21.2749,0.963527 -21.60713,1.168856 -0.74685,0.461578 -0.78225,7.474373 -0.0436,8.636001 0.29623,0.465842 2.13952,0.947985 4.09621,1.071428 l 3.55759,0.224456 v 7.989595 c 0,7.8556938 -0.0349,8.0260722 -2.08577,10.1658849 -4.72834,4.9335322 -15.11871,5.9063815 -21.06368,1.9721843 -2.90335,-1.9213414 -3.1436,-1.9585914 -8.14557,-1.2628776 -9.15241,1.2729776 -49.33195,10.0762998 -51.01107,11.176499 -0.89502,0.5864424 -2.48177,2.4241982 -3.52611,4.0839042 -2.6316,4.1822332 -9.21359,10.4103712 -14.02494,13.2709262 -12.35019,7.342738 -25.82887,9.620914 -38.49463,6.506395 z m 18.40078,-11.049213 c 11.67124,-3.562647 17.8082,-16.543774 13.60929,-28.786865 -1.8258,-5.32361 -7.37552,-10.901699 -12.59085,-12.655205 -11.34747,-3.815261 -23.39994,0.835842 -28.34216,10.937385 -2.6487,5.4137458 -2.79716,13.0279117 -0.35808,18.3656507 2.66864,5.8401033 8.19052,10.6449713 14.4186,12.5463263 3.02406,0.923214 9.56221,0.722436 13.2632,-0.407292 z M -916.33121,6.9919857 c -4.67482,-2.0354199 -7.43308,-7.98864415 -6.06143,-13.0825476 2.37341,-8.8141791 13.43109,-11.3111771 19.64272,-4.4356461 3.37229,3.7327252 3.91908,7.5216724 1.724,11.9463121 -2.81627,5.6767887 -9.48688,8.1052155 -15.30529,5.5718816 z"
           id="path436"
           sodipodi:nodetypes="sscsscssssssssscsscsssscssssssssscccsscccsscssssssssssscccssssscssssscssscssssscccsssssssssssssssssssssssssssssssssssssssscccssssssssssscccsscscssscsscccsscssssssssssssscsssssssssssssssssssss" /><path
           style="fill:#0888ac;stroke-width:0.714285"
           d="m -913.25085,126.77739 c 1.26802,-0.1578 3.51802,-0.16039 5,-0.006 1.48197,0.15463 0.4445,0.28373 -2.3055,0.2869 -2.75,0.003 -3.96253,-0.12334 -2.6945,-0.28113 z m -8.90282,-0.71133 c 1.08576,-0.16418 2.6929,-0.15979 3.57143,0.01 0.87853,0.16954 -0.01,0.30387 -1.97411,0.29851 -1.96428,-0.006 -2.68307,-0.14408 -1.59732,-0.30826 z m -31.48301,-7.11823 c -1.6942,-0.59919 -2.95406,-1.21574 -2.7997,-1.37009 0.3259,-0.3259 6.95148,1.84942 6.95148,2.28231 0,0.44728 -0.81275,0.2687 -4.15178,-0.91222 z m -13.91065,-5.99995 c -2.27362,-1.1734 -3.94215,-2.44365 -3.70784,-2.82278 0.5795,-0.93766 120.81665,-0.94006 121.39613,-0.002 0.23349,0.3778 -0.85973,1.34208 -2.42938,2.14286 -3.82595,1.95185 -4.72979,1.80504 -1.12512,-0.18276 l 2.85714,-1.57557 -29.76791,-0.18636 c -16.37235,-0.1025 -43.37233,-0.1025 -59.99996,0 l -30.23204,0.18608 4.28571,2.28707 c 2.35714,1.2579 3.96429,2.28707 3.57143,2.28707 -0.39286,0 -2.57453,-0.96005 -4.84816,-2.13346 z m 17.58162,-15.476281 c 21.93196,-0.104893 57.61051,-0.104872 79.28566,5e-5 21.67515,0.104921 3.73081,0.190742 -39.8763,0.190714 -43.60711,-2.9e-5 -61.34132,-0.08587 -39.40936,-0.190764 z m 121.19501,-0.979192 c 0.98214,-0.390479 2.60417,-1.414749 3.6045,-2.276149 1.00033,-0.861399 0.76398,-0.521542 -0.52523,0.755243 -1.2892,1.276784 -2.91123,2.301055 -3.60449,2.276148 -0.89298,-0.03207 -0.73984,-0.252271 0.52522,-0.755242 z m -167.79705,-2.351892 c -1.29972,-1.340963 -2.19172,-2.867747 -1.98222,-3.392854 0.29781,-0.746457 0.3932,-0.728414 0.43729,0.08269 0.031,0.570585 1.08373,2.09737 2.33937,3.392854 1.25563,1.295492 2.12225,2.355434 1.92583,2.355434 -0.19643,0 -1.42055,-1.097156 -2.72027,-2.438127 z m 42.26143,-4.526046 c 23.86605,-0.104364 62.9196,-0.104364 86.78565,0 23.86605,0.104357 4.33928,0.189735 -43.39283,0.189735 -47.7321,0 -67.25887,-0.08538 -43.39282,-0.189735 z m 169.29541,-5.691232 c 1.08576,-0.164185 2.6929,-0.159793 3.57143,0.0097 0.87853,0.169543 -0.01,0.303872 -1.97411,0.298515 -1.96428,-0.0057 -2.68307,-0.144086 -1.59732,-0.308265 z m -7.25152,-3.410562 -3.43051,-3.20884 -44.57457,-0.189521 -44.57458,-0.189529 44.68776,-0.173064 44.68776,-0.173064 2.09792,2.233362 c 1.15386,1.22835 3.06221,2.834291 4.24078,3.568755 1.17857,0.734471 1.7273,1.336599 1.2194,1.338063 -0.5079,0.0014 -2.46718,-1.441306 -4.35396,-3.206162 z m 14.74822,1.784121 c 1.28038,-0.780657 2.96667,-2.466949 3.74733,-3.747326 0.78066,-1.280378 1.42058,-1.888356 1.42204,-1.351064 10e-4,0.537286 -1.24523,2.224784 -2.77043,3.749998 -1.52522,1.525206 -3.21271,2.771905 -3.75,2.770433 -0.53729,-0.0014 0.0707,-0.641385 1.35106,-1.422041 z m -251.83359,-2.38847 3.3512,-3.329669 44.50586,0.167935 44.50584,0.167936 -44.88478,0.367778 c -43.76952,0.358643 -44.91492,0.403271 -46.09842,1.796349 -0.6675,0.785714 -2.005,2.042991 -2.9723,2.793955 -0.9673,0.750964 -0.2506,-0.132964 1.5926,-1.964284 z m -12.8697,-2.839991 c -0.8542,-0.909249 -1.5483,-2.114606 -1.5425,-2.678569 0.01,-0.563964 0.4139,-0.228157 0.9069,0.746242 0.493,0.974399 1.6937,2.17502 2.6681,2.668041 1.087,0.550035 1.3367,0.900471 0.6461,0.906935 -0.619,0.0057 -1.8244,-0.7334 -2.6786,-1.642649 z m 6.29,0.735714 c 0.9744,-0.493021 2.175,-1.693642 2.6681,-2.668041 0.55,-1.087071 0.9004,-1.336742 0.9069,-0.646143 0.013,1.377371 -2.9131,4.235576 -4.3212,4.221119 -0.564,-0.0057 -0.2282,-0.413914 0.7462,-0.906935 z m 248.90044,-0.193372 c -1.33937,-1.073056 -1.33347,-1.085199 0.17366,-0.357142 2.29892,1.110556 6.34415,0.916392 7.39945,-0.355164 0.50614,-0.609878 1.15139,-2.297377 1.43389,-3.749997 0.50283,-2.585706 0.51534,-2.594434 0.59575,-0.416043 0.12524,3.392419 -2.28,5.989181 -5.54746,5.989181 -1.46782,0 -3.29271,-0.499871 -4.05529,-1.110835 z m -262.25344,-4.246304 c 0.01,-1.964284 0.1441,-2.683076 0.3082,-1.59732 0.1642,1.085757 0.1598,2.692898 -0.01,3.571426 -0.1695,0.878528 -0.3038,-0.0098 -0.2985,-1.974106 z m 16.3071,-1.496434 c -0.1214,-2.192949 -2.3498,-3.862255 -5.1391,-3.849769 -2.988,0.01336 -3.9508,0.5809 -4.8629,2.86637 -0.4975,1.246634 -0.7179,1.398156 -0.7499,0.515549 -0.1419,-3.919568 6.8663,-5.60891 9.8949,-2.385148 0.93,0.989956 1.4736,2.280463 1.2788,3.035712 -0.2936,1.137763 -0.35,1.113292 -0.4218,-0.182714 z m 5.4481,-3.604912 c -0.8813,-1.037885 -2.406,-2.687741 -3.3881,-3.666347 -1.386,-1.381006 -1.4486,-1.558178 -0.2798,-0.791507 0.8283,0.543278 2.3811,2.029492 3.4509,3.302691 l 1.9449,2.314912 36.19198,0.191779 36.19196,0.191778 -36.2547,0.171879 -36.25474,0.171878 z m 197.2612,1.351442 c 26.18549,-0.145793 34.85377,-0.40755 35.71426,-1.078449 1.00514,-0.783692 1.02313,-0.741678 0.15595,0.364071 -0.91303,1.164199 -3.36453,1.23822 -35.71426,1.078449 l -34.73395,-0.17155 z m 50.7285,-0.59675 c -0.65649,-0.791028 -1.84655,-1.060177 -3.94785,-0.892856 -1.65444,0.131728 -2.85906,-0.0014 -2.67694,-0.2962 0.72196,-1.168063 5.74449,-0.530399 7.03251,0.892857 0.71107,0.785713 1.12167,1.42857 0.91245,1.42857 -0.20921,0 -0.80329,-0.509571 -1.32017,-1.132371 z m -102.2867,-0.09744 c 1.26802,-0.157793 3.51802,-0.160386 4.99999,-0.0057 1.48197,0.154628 0.4445,0.283728 -2.30549,0.286899 -2.75,0.0029 -3.96253,-0.123342 -2.6945,-0.281135 z m 90.68659,-4.305904 c 1.28921,-1.276785 2.75051,-2.311656 3.24735,-2.299706 0.49684,0.01193 0.26049,0.376393 -0.52522,0.809893 -0.78572,0.433492 -2.24702,1.468356 -3.24736,2.299705 -1.00033,0.831342 -0.76398,0.466893 0.52523,-0.809892 z m -184.19265,-2.142358 c 9.55395,-0.112578 24.98251,-0.112464 34.28569,2.57e-4 9.3032,0.112714 1.48634,0.204829 -17.37079,0.204686 -18.85713,-1.36e-4 -26.46883,-0.09236 -16.9149,-0.204943 z m 62.10623,0.01757 c 1.28382,-0.158971 3.21239,-0.155692 4.28571,0.0073 1.07332,0.162986 0.0229,0.29305 -2.33422,0.289043 -2.35714,-0.0043 -3.23531,-0.137357 -1.95149,-0.296329 z m 47.66574,-0.183799 c 20.0357,-0.203486 36.91069,-0.634886 37.49998,-0.958664 0.58928,-0.323771 0.44749,-0.0827 -0.31509,0.535714 -1.22688,0.994935 -5.54455,1.105313 -37.49998,0.958664 l -36.11345,-0.165736 z m 80.54548,-0.525393 c 1.08576,-0.164185 2.6929,-0.159793 3.57143,0.0097 0.87853,0.169543 -0.01,0.303872 -1.97411,0.298514 -1.96428,-0.0057 -2.68307,-0.144085 -1.59732,-0.308264 z m -41.61693,-1.119878 c 0,-0.575821 7.88811,-11.938984 8.28783,-11.938984 0.18525,0 -1.01477,2.008927 -2.6667,4.464283 -3.53273,5.25086 -5.62113,8.027915 -5.62113,7.474701 z m -172.14273,-4.438988 c -1.21632,-1.767856 -2.05073,-3.214284 -1.85433,-3.214284 0.1964,0 1.3523,1.446428 2.56861,3.214284 1.21631,1.767856 2.05077,3.214283 1.85434,3.214283 -0.19643,0 -1.35231,-1.446427 -2.56862,-3.214283 z m 8.87495,-0.903792 c -0.42235,-0.288629 -2.13188,-2.614063 -3.79897,-5.167632 -3.25062,-4.979161 -1.93904,-3.801533 1.87358,1.68222 l 2.3067,3.317776 h 78.38069 78.38069 l 1.693,-1.964284 1.69301,-1.964285 -1.53624,2.321427 -1.53624,2.321427 -78.34416,-0.01093 c -43.08929,-0.0057 -78.68971,-0.247086 -79.11206,-0.535714 z m -15.90738,-8.765244 c -2.4179,-3.157262 -4.3961,-5.945581 -4.3961,-6.196274 0,-0.250693 1.4803,1.448585 3.2896,3.776183 4.271,5.49461 6.1652,8.160558 5.798,8.160558 -0.1625,0 -2.2736,-2.583212 -4.6915,-5.740467 z m 189.75284,-1.402385 c 2.76963,-4.212804 4.731,-5.916874 6.33345,-5.502603 1.06441,0.275171 1.0143,0.352071 -0.27355,0.41975 -0.90031,0.04729 -2.43241,1.185913 -3.57143,2.654148 -3.69994,4.769375 -4.6134,5.660896 -2.48847,2.428705 z m -252.53194,1.630299 c 1.0857,-0.164186 2.6929,-0.159793 3.5714,0.0097 0.8785,0.169543 -0.01,0.303872 -1.9741,0.298514 -1.9643,-0.0057 -2.6831,-0.144085 -1.5973,-0.308264 z m 311.42831,0 c 1.08576,-0.164186 2.6929,-0.159793 3.57143,0.0097 0.87853,0.169543 -0.01,0.303872 -1.97411,0.298514 -1.96428,-0.0057 -2.68307,-0.144085 -1.59732,-0.308264 z m -318.12931,-2.974834 c -1.5252,-1.525213 -2.7719,-3.212711 -2.7705,-3.749997 10e-4,-0.537292 0.6414,0.07071 1.4221,1.351064 0.7806,1.280377 2.4669,2.966669 3.7473,3.747325 1.2804,0.780657 1.8884,1.420578 1.3511,1.422042 -0.5373,0.0014 -2.2248,-1.245227 -3.75,-2.770434 z m 311.24975,-0.262606 -2.95168,-3.035713 -18.21427,-0.380871 -18.21427,-0.380871 18.06436,-0.154843 18.06436,-0.154842 2.64991,2.777512 c 1.45745,1.527627 3.29277,3.124998 4.07848,3.549704 0.82586,0.446407 1.01643,0.781357 0.45168,0.793914 -0.53729,0.01193 -2.30515,-1.344349 -3.92857,-3.01399 z m -293.80925,-0.788693 3.3661,-3.318447 21.9601,0.158514 21.9601,0.158521 -22.3795,0.377193 -22.3794,0.377199 -1.4382,1.975349 c -0.791,1.086449 -2.117,2.338677 -2.9467,2.782734 -0.8297,0.444057 0.01,-0.685921 1.8575,-2.511063 z m 235.5697,-2.425591 c 2.68595,-3.995683 6.36115,-8.035708 7.31007,-8.035708 0.36877,0 -0.18473,0.672714 -1.22999,1.49492 -1.04526,0.822207 -3.18988,3.393633 -4.7658,5.714282 -1.57592,2.320648 -3.02949,4.219361 -3.23015,4.219361 -0.20067,0 0.66148,-1.526785 1.91587,-3.392855 z m -247.4587,0.714285 c -0.1821,-0.294642 1.054,-0.535714 2.7468,-0.535714 1.6928,0 2.9289,0.241072 2.7468,0.535714 -0.1821,0.294643 -1.4182,0.535714 -2.7468,0.535714 -1.3286,0 -2.5647,-0.241071 -2.7468,-0.535714 z m 66.6673,-4.285711 c -1.689,-2.258927 -2.5117,-3.643483 -1.8283,-3.076798 1.2813,1.062435 5.70179,7.183938 5.18775,7.183938 -0.15874,0 -1.67055,-1.848213 -3.35945,-4.10714 z m 21.36974,3.185026 c 0.55253,-0.703592 1.7657,-2.922012 2.69593,-4.929817 1.97287,-4.258247 9.23408,-11.584221 13.87215,-13.995883 1.72787,-0.898449 2.53598,-1.219878 1.79578,-0.714285 -9.15379,6.252502 -12.95294,10.130721 -15.44662,15.768095 -0.77286,1.747192 -1.97145,3.620955 -2.66352,4.163926 -1.14856,0.901114 -1.1707,0.875642 -0.25372,-0.292036 z m 237.00803,-2.767412 c 0.43226,-5.233703 0.79401,-5.944717 0.84844,-1.667613 0.025,1.964284 -0.22648,4.000426 -0.55885,4.524754 -0.35359,0.557807 -0.47373,-0.627592 -0.28959,-2.857141 z m -317.52487,1.136928 c 1.1801,-3.231133 0.2411,-5.925474 -2.4769,-7.107238 -1.4026,-0.609871 -1.7973,-1.009406 -1.0141,-1.026485 0.7054,-0.01536 2.0715,0.761007 3.0358,1.725292 1.9946,1.994591 2.2983,5.111068 0.7033,7.217366 -0.957,1.263849 -0.979,1.192278 -0.2481,-0.808935 z m 224.37909,-6.091853 c -0.85889,-1.92412 -1.42792,-3.498397 -1.26452,-3.498397 0.52055,0 3.27592,5.79656 3.04645,6.408895 -0.12118,0.323343 -0.92304,-0.986385 -1.78193,-2.910498 z m 77.00156,2.518963 c -0.12545,-2.244899 2.80212,-4.58879 5.73153,-4.58879 2.74476,0 6.06677,2.720012 5.38997,4.413225 -0.2691,0.673236 -0.39346,0.617207 -0.43368,-0.195378 -0.0927,-1.873363 -2.5032,-3.503562 -5.1805,-3.503562 -2.63541,0 -4.46413,1.415221 -5.07643,3.928569 -0.33734,1.38472 -0.35057,1.383063 -0.43089,-0.05407 z m -86.48669,-4.304097 c -1.2982,-1.807706 -4.3259,-4.730925 -6.72823,-6.496046 -5.29923,-3.893632 -5.83187,-4.428468 -2.63887,-2.649726 2.88844,1.609077 10.17548,8.531729 11.39519,10.825363 1.36674,2.570134 0.52059,1.869385 -2.02809,-1.679591 z m -209.74326,-0.677828 c -1.0639,-1.394792 -2.7677,-2.989062 -3.7863,-3.542826 -1.0187,-0.553764 -1.4103,-1.019707 -0.8703,-1.035435 0.54,-0.01572 2.5391,1.578541 4.4423,3.542826 1.9033,1.964284 3.1653,3.571426 2.8045,3.571426 -0.3607,0 -1.5263,-1.141192 -2.5902,-2.535991 z m 34.5401,2.007134 c 2.4554,-0.139479 6.4732,-0.139479 8.9286,0 2.4554,0.139478 0.4464,0.2536 -4.4643,0.2536 -4.9107,0 -6.9196,-0.114122 -4.4643,-0.2536 z m 216.46645,-0.0043 c 4.04768,-0.12755 10.47625,-0.127028 14.2857,0.0014 3.80947,0.128178 0.49773,0.232542 -7.35941,0.231907 -7.85714,-6.29e-4 -10.97397,-0.105507 -6.92629,-0.233057 z m 35.84082,0.0021 c 1.76015,-0.154807 3.68872,-0.661149 4.28572,-1.125206 0.94822,-0.737085 0.96151,-0.685728 0.10512,0.406249 -0.71332,0.909564 -1.88054,1.216014 -4.28571,1.125207 l -3.30539,-0.124729 z M -913.23492,30.34769 c 1.27678,-0.158442 3.36607,-0.158442 4.64285,0 1.27679,0.15845 0.23214,0.288093 -2.32143,0.288093 -2.55356,0 -3.59821,-0.129643 -2.32142,-0.288093 z m 67.49758,-8.540779 c -3.24237,-3.323733 -5.01023,-5.403153 -3.92857,-4.620932 2.64235,1.910855 11.26303,11.089327 10.08982,10.742677 -0.14631,-0.04321 -2.91888,-2.798019 -6.16125,-6.121745 z m -133.03325,0.947921 c 2.16071,-2.279413 4.89285,-4.814268 6.07143,-5.633003 2.45064,-1.702428 2.51001,-1.764249 -4.64286,4.834939 -5.1035,4.708461 -5.17114,4.746239 -1.42857,0.798064 z m 91.28096,1.368756 c 4.82964,-2.602841 8.31953,-5.031297 12.28362,-8.547587 2.41609,-2.143177 2.43819,-2.148434 0.71428,-0.169964 -2.14137,2.45757 -9.20473,7.56413 -13.35761,9.657079 -4.83519,2.436812 -4.55702,1.710248 0.35971,-0.939528 z m -183.99047,0.920242 c 0.5081,-0.322364 2.6917,-0.565664 4.8524,-0.540664 4.7457,0.05493 4.0044,0.431707 -1.6382,0.832699 -2.3095,0.164122 -3.7299,0.03507 -3.2142,-0.292035 z m 313.97214,-0.411371 c 1.28382,-0.158971 3.21239,-0.155693 4.28571,0.0073 1.07333,0.162985 0.0229,0.293049 -2.33422,0.289042 -2.35714,-0.0043 -3.23531,-0.137357 -1.95149,-0.296328 z m -201.81811,-6.426867 c 1.46234,-0.600278 2.85776,-1.718263 3.10093,-2.484412 0.24316,-0.766143 0.59952,-1.235585 0.79191,-1.0432 0.79144,0.791443 -1.31772,3.232491 -3.42888,3.968447 -3.27084,1.140221 -3.58603,0.84075 -0.46396,-0.440835 z m 45.36093,4.43e-4 c 1.26802,-0.157793 3.51802,-0.160386 5,-0.0057 1.48197,0.154628 0.4445,0.283728 -2.3055,0.286899 -2.75,0.0029 -3.96252,-0.123342 -2.6945,-0.281135 z m -56.23403,-2.693527 c 0,-0.483878 5.80184,-3.370054 6.12498,-3.046926 0.14973,0.149743 -1.16713,0.971556 -2.92636,1.826263 -1.75924,0.854699 -3.19862,1.403999 -3.19862,1.220663 z m 43.85238,-2.651698 c -2.9769,-2.744012 -6.51307,-8.1452369 -5.79971,-8.8586007 0.16236,-0.1623641 0.88716,1.0175064 1.61065,2.6219267 0.7235,1.6044274 2.89784,4.339847 4.83187,6.07871 1.93404,1.738863 3.31376,3.161569 3.06607,3.161569 -0.24769,0 -1.91669,-1.35162 -3.70888,-3.003605 z m 59.80183,1.864313 c -0.11295,-2.040027 2.26261,-4.050504 4.32252,-3.658233 1.56649,0.298307 1.5539,0.323078 -0.21078,0.414543 -2.04092,0.105778 -3.13101,1.087327 -3.67773,3.311554 -0.33786,1.374492 -0.35428,1.371921 -0.43401,-0.06786 z m -30.07008,-1.757056 c 1.38201,-1.353434 3.09103,-3.2643618 3.7978,-4.2465039 0.89406,-1.2423706 0.84787,-1.025035 -0.1518,0.7142852 -0.79027,1.3749987 -2.49928,3.2859267 -3.7978,4.2465047 l -2.36095,1.746513 z m 27.0472,-4.726825 c 0.90478,-1.7813987 4.17893,-4.5301039 5.35778,-4.4979539 0.43809,0.011929 0.15367,0.3637497 -0.63204,0.7817851 -0.78571,0.4180283 -2.34776,1.7743273 -3.47122,3.0139907 -1.35751,1.4979061 -1.7783,1.7334345 -1.25452,0.7021781 z m -35.98852,-1.8557987 c 1.88257,-1.0531349 3.40534,-2.6844337 4.46429,-4.7824536 0.88392,-1.75126305 1.60594,-2.7142266 1.60447,-2.13991277 -0.007,2.77056937 -5.58364,8.56318667 -8.21161,8.52977947 -0.39286,-0.005 0.57143,-0.728328 2.14285,-1.6074131 z m -48.69624,0.1398428 c -0.42224,-0.4222426 -2.01331,-1.2117063 -3.53571,-1.754363 -1.60604,-0.572471 -2.16831,-0.9986922 -1.33944,-1.015335 1.38022,-0.027714 6.07143,2.4214697 6.07143,3.169762 0,0.5615853 -0.35252,0.4436925 -1.19628,-0.400064 z m 34.26717,-1.5537203 c -1.76662,-1.9395915 -3.08103,-4.38758969 -3.04296,-5.66732447 0.0154,-0.51689963 0.51483,0.18289272 1.10989,1.55508457 0.59506,1.3721919 1.7635,3.2204048 2.59655,4.1071399 0.83305,0.8867351 1.35391,1.6122417 1.15748,1.6122417 -0.19643,0 -1.01586,-0.7232138 -1.82096,-1.6071417 z m -13.5809,-8.0357085 c 0.006,-1.9642843 0.14409,-2.6830766 0.30827,-1.5973202 0.16418,1.0857563 0.15979,2.692898 -0.01,3.5714259 -0.16954,0.87852798 -0.30387,-0.00986 -0.29851,-1.9741057 z m 133.18847,0.5547139 c 1.27678,-0.1584427 3.36607,-0.1584427 4.64285,0 1.27679,0.1584499 0.23214,0.2880927 -2.32142,0.2880927 -2.55357,0 -3.59822,-0.1296428 -2.32143,-0.2880927 z m -233.13074,-1.5676131 c -2.5103,-1.5307203 -4.5482,-4.1094613 -4.5466,-5.7531744 7e-4,-0.6000847 0.5632,0.033929 1.25,1.4089347 0.8128,1.6270416 2.3618,3.0611835 4.436,4.1071398 1.7529,0.883928 2.7172,1.6059417 2.1429,1.6044703 -0.5744,-0.00143 -2.0514,-0.6167853 -3.2823,-1.3673704 z m 242.59502,0.2312569 c 1.375,-0.5955852 3.46311,-1.94907 4.64026,-3.0077549 l 2.14025,-1.9248843 -1.78311,2.0321485 c -1.88316,2.1461627 -5.01428,4.0581399 -6.56907,4.0113185 -0.51058,-0.015357 0.19667,-0.5152496 1.57167,-1.1108278 z m -141.41986,-7.114223 c -0.0137,-1.199671 3.89629,-6.968074 5.77616,-8.52153 1.49755,-1.23752 1.47238,-1.14687 -0.19825,0.714286 -1.05242,1.172427 -2.73604,3.578118 -3.7414,5.345974 -1.00535,1.767856 -1.83179,2.875427 -1.83651,2.46127 z m -106.31706,-7.240538 c -0.066,-4.003597 0.121,-7.429323 0.4157,-7.61273 0.2946,-0.1834 0.4478,1.967277 0.3405,4.779275 -0.3508,9.187915 -0.6339,10.248643 -0.7562,2.833455 z m 255.13331,0.136414 c -0.002,-3.535711 0.11861,-5.072196 0.26841,-3.414404 0.1498,1.657784 0.15158,4.550639 0.004,6.428567 -0.14762,1.87792 -0.27019,0.521549 -0.27236,-3.014163 z m -226.65681,0.4041 c -0.4067,-0.759885 -0.714,-1.804527 -0.683,-2.321427 0.031,-0.516899 0.378,-0.05936 0.7712,1.016764 l 0.7148,1.956577 30.12165,0.194243 30.1216,0.194235 -30.15342,0.170614 c -29.17293,0.165057 -30.17743,0.125686 -30.89283,-1.211006 z m 145.51047,0.848392 c 4.41964,-0.125314 11.65178,-0.125314 16.07142,0 4.41964,0.125322 0.80357,0.227857 -8.03571,0.227857 -8.83928,0 -12.45535,-0.102535 -8.03571,-0.227857 z m -30.62681,-1.374484 c -0.53917,-0.656386 -2.40931,-2.102813 -4.15586,-3.214284 -1.74656,-1.111477 -2.83943,-2.020863 -2.4286,-2.020863 0.92286,0 5.96549,3.618912 7.29875,5.238054 0.53918,0.654778 0.81961,1.190513 0.62318,1.190513 -0.19643,0 -0.79829,-0.537042 -1.33747,-1.19342 z m 16.10284,-4.042662 c -2.71717,-2.87984 -5.90459,-5.951153 -7.08316,-6.825138 -1.73169,-1.284163 -1.80022,-1.422513 -0.35714,-0.721035 1.80504,0.877421 13.79941,12.782255 12.87839,12.782255 -0.27379,0 -2.72093,-2.356234 -5.43809,-5.236082 z m 65.20389,4.725161 c 1.34959,-0.250243 1.61136,-0.843428 1.84443,-4.17964 l 0.27162,-3.888011 -0.0587,4.110711 c -0.0554,3.873655 -0.1617,4.11469 -1.84443,4.179647 -1.48267,0.05721 -1.5188,0.01943 -0.2129,-0.222707 z m -127.28701,-7.346216 c 1.93475,-1.964284 3.67844,-3.571426 3.87487,-3.571426 0.19643,0 -1.22583,1.607142 -3.16058,3.571426 -1.93475,1.964284 -3.67844,3.571426 -3.87487,3.571426 -0.19643,0 1.22584,-1.607142 3.16058,-3.571426 z m -69.82788,-0.166378 c -0.25,-0.651428 -1.4894,-1.293999 -2.8097,-1.456714 -2.3541,-0.290121 -2.3549,-0.291499 -0.2195,-0.394514 2.5642,-0.123707 4.2206,0.784314 3.7896,2.077449 -0.2302,0.690357 -0.4317,0.630392 -0.7604,-0.226221 z m 219.0801,-2.212342 c -0.75047,-2.990133 -0.0678,-7.959015 1.10482,-8.041029 0.68697,-0.04807 0.73888,0.03493 0.14468,0.231306 -0.64959,0.214665 -0.8632,1.516935 -0.71428,4.35449 l 0.21246,4.04824 2.85714,0.43435 2.85714,0.434357 -3.02211,0.101357 c -2.6101,0.08754 -3.07905,-0.12555 -3.43985,-1.563071 z m -241.5377,0.446764 3.4288,-0.292107 -0.2145,-3.709397 -0.2145,-3.70939 -11.0714,-0.385507 -11.0714,-0.385507 10.7143,-0.139271 c 5.8928,-0.07659 11.1346,0.127307 11.6483,0.453114 0.6302,0.399707 0.8625,1.84817 0.7143,4.453347 l -0.2198,3.860961 -3.5714,0.07293 -3.5714,0.07293 z m 225.49967,-0.148757 3.92857,-0.419285 0.22218,-3.502319 c 0.14568,-2.296405 -0.10026,-3.729297 -0.71428,-4.161518 -0.73155,-0.51495 -0.70201,-0.596007 0.13496,-0.370414 1.35643,0.365599 1.87441,6.636388 0.66823,8.089744 -0.55595,0.669878 -2.09072,0.976278 -4.50568,0.899506 l -3.66255,-0.116421 z m -84.28565,-5.419281 c -1.76786,-0.946635 -2.96041,-1.735685 -2.65011,-1.753435 0.75853,-0.04343 6.22154,2.763398 6.22154,3.196519 0,0.473207 0.0296,0.485186 -3.57143,-1.443084 z m -126.24632,-1.785713 c 0.234,-0.8616 1.7484,-1.079764 7.733,-1.113978 l 7.442,-0.04257 -7.1179,0.248843 c -4.4967,0.157207 -7.3443,0.567414 -7.7329,1.113971 -0.4387,0.617035 -0.5317,0.557878 -0.3242,-0.206286 z m -55.7178,-1.901628 c -1.2712,-0.512935 -1.1064,-2.863612 0.237,-3.37909 0.6214,-0.238464 2.1482,-0.38795 3.3928,-0.3322 2.0606,0.09229 2.0074,0.140214 -0.5941,0.535714 -1.8705,0.28435 -2.8572,0.804364 -2.8572,1.505778 0,0.877442 1.6813,1.14202 9.2857,1.461313 l 9.2857,0.389878 -8.9285,0.08944 c -4.9107,0.04921 -9.3304,-0.07269 -9.8214,-0.270836 z m 75.36985,-0.04464 c 1.28382,-0.158972 3.21239,-0.155693 4.28571,0.0073 1.07332,0.162986 0.0229,0.29305 -2.33422,0.289043 -2.35714,-0.0043 -3.23534,-0.137357 -1.95149,-0.296328 z m 181.0585,-0.0073 c 1.86607,-0.147143 4.91964,-0.147143 6.78571,0 1.86607,0.147143 0.33929,0.267528 -3.39285,0.267528 -3.73214,0 -5.25893,-0.120385 -3.39286,-0.267528 z m 40.35711,-0.0036 c 2.45536,-0.139479 6.47321,-0.139479 8.92857,0 2.45535,0.139478 0.44643,0.253599 -4.46428,0.253599 -4.91071,0 -6.91964,-0.114121 -4.46429,-0.253599 z m -211.07127,-0.705764 c 1.47321,-0.1541 3.88393,-0.1541 5.35714,0 1.47321,0.154107 0.26786,0.280185 -2.67857,0.280185 -2.94643,0 -4.15178,-0.126078 -2.67857,-0.280185 z m 73.59745,-0.0083 c 2.27327,-0.142178 5.80898,-0.140857 7.85714,0.0029 2.04816,0.143793 0.18821,0.260121 -4.13322,0.258507 -4.32142,-0.0014 -5.99719,-0.119257 -3.72392,-0.261435 z m 82.47386,0.0057 c 1.66965,-0.150378 4.40179,-0.150378 6.07143,0 1.66964,0.150386 0.30357,0.273429 -3.03571,0.273429 -3.33929,0 -4.70536,-0.123043 -3.03572,-0.273429 z m 73.39281,0.07189 c 5.11617,-0.531221 10.91243,-0.577457 10.60595,-0.08459 -0.18322,0.294643 -3.12666,0.484271 -6.54097,0.4214 -3.41431,-0.06286 -5.24355,-0.214436 -4.06498,-0.336807 z m -220.17841,-0.71367 c 0.6875,-0.202679 1.25,-0.644007 1.25,-0.980735 0,-0.336729 -0.5625,-0.746536 -1.25,-0.910685 -0.95152,-0.227186 -0.90888,-0.281693 0.17857,-0.22825 0.78571,0.03857 1.42857,0.547942 1.42857,1.131842 0,0.583907 -0.64286,1.127949 -1.42857,1.208992 -1.11025,0.114507 -1.15004,0.06521 -0.17857,-0.221164 z m -84.6428,-2.923327 c 1.2768,-0.158443 3.3661,-0.158443 4.6429,0 1.2767,0.15845 0.2321,0.288093 -2.3215,0.288093 -2.5535,0 -3.5982,-0.129643 -2.3214,-0.288093 z m 74.26973,0.0014 c 1.26802,-0.157793 3.51802,-0.160386 5,-0.0057 1.48197,0.154629 0.4445,0.283729 -2.3055,0.2869 -2.75,0.0029 -3.96252,-0.123342 -2.6945,-0.281135 z m 228.57127,0 c 1.26802,-0.157793 3.51801,-0.160386 4.99999,-0.0057 1.48197,0.154629 0.4445,0.283729 -2.3055,0.2869 -2.74999,0.0029 -3.96252,-0.123342 -2.69449,-0.281135 z m -291.7696,-0.710935 c 1.0804,-0.163664 2.8482,-0.163664 3.9286,0 1.0803,0.163657 0.1964,0.297564 -1.9643,0.297564 -2.1607,0 -3.0446,-0.133907 -1.9643,-0.297564 z m 51.7857,-0.005 c 1.27678,-0.158443 3.36607,-0.158443 4.64285,0 1.27679,0.15845 0.23215,0.288093 -2.32142,0.288093 -2.55353,0 -3.59823,-0.129643 -2.32143,-0.288093 z m 164.99988,0 c 1.27678,-0.158443 3.36607,-0.158443 4.64285,0 1.27679,0.15845 0.23215,0.288093 -2.32142,0.288093 -2.55357,0 -3.59822,-0.129643 -2.32143,-0.288093 z M -1044.3063,-41.7899 c 1.0804,-0.163664 2.8483,-0.163664 3.9286,0 1.0804,0.163657 0.1964,0.297564 -1.9643,0.297564 -2.1607,0 -3.0446,-0.133907 -1.9643,-0.297564 z m 33.2271,-0.0057 c 1.2838,-0.158972 3.2124,-0.155693 4.2857,0.0073 1.0733,0.162986 0.023,0.29305 -2.3342,0.289043 -2.3572,-0.0043 -3.2353,-0.137357 -1.9515,-0.296328 z m 185.70136,7.14e-4 c 1.27678,-0.158443 3.36607,-0.158443 4.64285,0 1.27679,0.15845 0.23214,0.288093 -2.32143,0.288093 -2.55357,0 -3.59821,-0.129643 -2.32142,-0.288093 z m 46.78568,0.005 c 1.08035,-0.163664 2.84821,-0.163664 3.92857,0 1.08035,0.163657 0.19642,0.297564 -1.96429,0.297564 -2.16071,0 -3.04464,-0.133907 -1.96428,-0.297564 z m -255.89554,-0.732492 c 1.3734,-0.165657 2.9806,-0.676714 3.5714,-1.135685 0.9358,-0.726885 0.9479,-0.6733 0.094,0.415499 -0.6513,0.830528 -1.8498,1.211642 -3.5714,1.135685 l -2.5911,-0.114307 z m 14.3158,-1.351792 c -1.7529,-0.929507 -2.7828,-1.689928 -2.2887,-1.689928 0.4941,0 2.4078,0.803571 4.2528,1.785713 1.8449,0.982143 2.8749,1.742563 2.2887,1.689821 -0.5862,-0.05272 -2.4999,-0.856314 -4.2528,-1.785713 z m 205.50834,1.364784 c 1.27678,-0.158442 3.36606,-0.158442 4.64285,0 1.27678,0.15845 0.23214,0.288093 -2.32143,0.288093 -2.55357,0 -3.59821,-0.129643 -2.32142,-0.288093 z m 28.22408,0.0043 c 1.08576,-0.164185 2.6929,-0.159793 3.57143,0.0097 0.87853,0.169543 -0.01,0.303872 -1.97411,0.298515 -1.96428,-0.0057 -2.68307,-0.144086 -1.59732,-0.308265 z m -16.46541,-1.98757 c 2.07241,-1.103228 4.39068,-1.749234 6.06573,-1.690277 2.688,0.09462 2.68315,0.09939 -0.56472,0.555585 -1.80182,0.253079 -4.12087,1.013707 -5.15344,1.690278 -1.03258,0.67657 -2.28796,1.230127 -2.78972,1.230127 -0.50177,0 0.5972,-0.803571 2.44215,-1.785713 z"
           id="path434"
           sodipodi:nodetypes="ccscccccccssssssssscsccsssssssssssssssssssssssssscssscccccsssssscsssscccssssscsssssssssssssssscscccssssssssssscccccssssscssscssssscssssssssssssscsssssscssscssssssssssssssccccccccsssssssssssssscsssscssscssssscccccssssccccccsscsssssssssssssssssssssssssssssssssssssssssssssssssssssssssssccsccsssscsssssssssssssssssssssssscssssssssscsssssssssssssssssssssscsssssssssssssssssssssscscccsssssssssssscsssssssssscssssssssscccssssssssssssssssssscsssssssssssssssssscccssccccccsssccccccsssssccsssssscsssssssssscssssscsssssssssssssssscsssssssssssssssssssssssscsssscsssssssssssssssssssscsssssssssssssscssssssssssssscssssssss" /><path
           style="fill:#887a1e;stroke-width:0.714285"
           d="m -1090.7705,-16.421276 c -0.9635,-0.963449 -1.1426,-6.158652 -0.2603,-7.548701 0.4443,-0.699957 4.541,-0.862307 18.0247,-0.714285 l 17.4498,0.191564 0.2241,3.547761 c 0.1727,2.735356 -0.063,3.757648 -1.0294,4.464283 -1.7326,1.266928 -33.1472,1.321135 -34.4089,0.05936 z m 33.7012,-0.778485 c 0.9207,-0.673235 1.1979,-1.683077 1.0294,-3.749997 l -0.2306,-2.828655 h -17.1429 -17.1428 l -0.2247,2.728419 c -0.3915,4.755275 -0.3336,4.771575 16.9613,4.771575 11.5203,0 15.8132,-0.236135 16.7503,-0.921342 z m 291.62355,0.329386 c -1.43261,-1.583021 -1.55759,-6.064374 -0.20054,-7.190624 0.69032,-0.572921 6.14799,-0.757835 18.39284,-0.623171 l 17.41125,0.191472 0.22404,3.547761 c 0.34024,5.388039 0.36508,5.380804 -18.46412,5.380804 -14.76908,0 -16.28452,-0.114007 -17.36347,-1.306242 z m 34.49075,-0.429621 c 0.46631,-0.561871 0.74674,-2.24937 0.62318,-3.749998 l -0.22466,-2.728419 h -17.49999 -17.49999 l -0.23063,2.828655 c -0.37135,4.554418 0.0826,4.671339 18.13682,4.671339 12.87154,0 16.00665,-0.191835 16.69527,-1.021577 z m -270.6442,-7.872673 c -0.4734,-0.570414 -0.7505,-1.615056 -0.6158,-2.321427 0.2915,-1.527956 3.07829,-1.940784 18.44441,-2.732305 11.32073,-0.583136 13.62503,-1.273907 15.34504,-4.600054 1.71957,-3.325269 1.37793,-6.267424 -1.00439,-8.649744 -1.14835,-1.148356 -2.5895,-2.087913 -3.20255,-2.087913 -0.61305,0 -6.48997,-0.492492 -13.05982,-1.094427 -13.38517,-1.226357 -14.51369,-1.691935 -14.49659,-5.98056 0.022,-5.479561 10.23576,-23.348998 19.16298,-33.526247 10.70604,-12.205134 29.91675,-23.799484 46.18387,-27.873614 45.64663,-11.43228 91.86506,10.43613 111.75326,52.876445 3.20807,6.845838 3.72541,10.815078 1.5606,11.973642 -1.47373,0.788721 -24.75747,3.624761 -29.75906,3.624761 -6.2427,0 -10.39792,6.78346 -6.66376,10.878671 1.65755,1.817806 1.92177,1.858484 19.48611,3.000184 10.56413,0.686671 18.20463,1.488399 18.78647,1.971277 0.55131,0.457549 0.88652,1.77872 0.76563,3.01759 l -0.21505,2.203692 -25.2308,0.187764 -25.2308,0.187771 -4.41204,-4.211525 c -12.29264,-11.733999 -24.74372,-16.564717 -40.1306,-15.569718 -12.48998,0.807664 -22.91528,5.401632 -32.28344,14.225869 l -5.87828,5.536981 h -24.22235 c -20.3034,0 -24.36164,-0.167792 -25.08304,-1.037113 z m 52.5816,-3.085205 c 5.6359,-6.786745 17.6644,-13.448119 28.1025,-15.563146 7.11231,-1.441142 18.00072,-1.085406 24.28731,0.793492 7.18949,2.148749 14.68214,6.610545 21.08158,12.553891 l 6.07529,5.642289 24.81439,-0.187814 24.8144,-0.187822 0.23904,-1.689527 c 0.13148,-0.929235 -0.0292,-1.952927 -0.35714,-2.27487 -0.3279,-0.321942 -8.31047,-1.102006 -17.73903,-1.733484 -9.42857,-0.631471 -17.86022,-1.299928 -18.737,-1.48547 -1.62661,-0.344207 -3.76299,-3.585362 -3.76299,-5.708932 0,-2.009249 2.27419,-6.089388 4.03841,-7.245352 0.9251,-0.606157 3.0467,-1.077435 4.71466,-1.047285 5.13108,0.09274 28.58648,-2.731969 29.58814,-3.563276 1.75691,-1.458106 0.98793,-5.258367 -2.44838,-12.099805 -8.1697,-16.26531 -19.12034,-28.959822 -32.83931,-38.068965 -16.2494,-10.78928 -33.74314,-16.15936 -52.61133,-16.15018 -26.77568,0.013 -50.69518,10.02993 -68.82089,28.82052 -7.20374,7.467981 -11.63256,13.836383 -17.08495,24.567197 -4.25067,8.365736 -4.9517,12.381684 -2.39991,13.747383 1.17096,0.626678 20.6149,2.822448 25.2565,2.852169 0.72679,0.005 2.41429,1.101321 3.75,2.437034 2.86351,2.863512 3.19721,5.94491 1.02891,9.501029 -2.15338,3.531669 -4.38231,4.252704 -14.67176,4.746146 -15.53377,0.744943 -18.92854,1.210199 -18.92854,2.594198 0,0.663428 0.2261,1.432314 0.5024,1.708635 0.2763,0.276321 11.54353,0.41025 25.03827,0.297614 l 24.53588,-0.204779 z m 141.83669,-37.484794 c -0.40039,-0.491071 -1.14515,-2.297863 -1.65502,-4.015097 -1.13716,-3.829912 -1.12779,-3.838569 8.52715,-7.878773 45.82105,-19.174272 54.92741,-22.710042 56.71901,-22.022541 1.59208,0.610942 3.17312,5.992552 2.21935,7.554344 -0.39751,0.650928 -11.14485,5.380339 -23.88296,10.509785 -12.73811,5.129454 -26.96153,10.995521 -31.6076,13.035705 -4.64606,2.040191 -8.70491,3.709433 -9.01967,3.709433 -0.31476,0 -0.89988,-0.401785 -1.30026,-0.892856 z m 13.44151,-4.881375 c 6.46491,-2.782977 20.70041,-8.611158 31.63443,-12.951527 10.93404,-4.340368 20.04905,-8.331958 20.25559,-8.870208 0.49619,-1.293049 -0.17652,-3.844068 -1.48156,-5.618295 -1.04617,-1.422292 -1.0722,-1.420942 -5.92387,0.306585 -9.30773,3.31419 -57.68618,23.628983 -58.7106,24.653404 -0.89761,0.897606 -0.87021,1.44967 0.21268,4.285168 0.68367,1.790149 1.47161,3.254819 1.75099,3.254819 0.27938,0 5.79744,-2.276977 12.26234,-5.059946 z m -233.9597,0.348957 c -5.8929,-2.532799 -19.6666,-8.189245 -30.6083,-12.569877 -10.9417,-4.380633 -20.5265,-8.476972 -21.2996,-9.102972 -1.3818,-1.118921 -1.3832,-1.198428 -0.087,-4.698589 0.9404,-2.538277 1.7506,-3.622746 2.8222,-3.777576 0.8268,-0.11944 7.2466,2.17542 14.2663,5.099703 7.0197,2.924277 19.5131,8.051859 27.7631,11.394613 18.5585,7.519595 22.9099,9.438193 23.4733,10.349721 0.243,0.393221 -0.2408,2.357677 -1.0752,4.365461 -1.1679,2.810184 -1.8652,3.638319 -3.029,3.597555 -0.8316,-0.02912 -6.3334,-2.125241 -12.2262,-4.658039 z m 14.5718,0.960992 c 0.7144,-1.669642 1.1585,-3.412705 0.9868,-3.873469 -0.1716,-0.460764 -4.3854,-2.498241 -9.3639,-4.527725 -4.9785,-2.029484 -19.2955,-7.894566 -31.8155,-13.033512 -16.9241,-6.946659 -23.0477,-9.164329 -23.871,-8.644958 -0.6091,0.384221 -1.5451,1.962606 -2.08,3.507519 -0.8475,2.448048 -0.8322,2.911483 0.119,3.607054 0.6003,0.438957 10.8156,4.690647 22.7007,9.448193 11.8851,4.757547 25.6271,10.408107 30.5378,12.556798 4.9107,2.148692 9.5042,3.926762 10.2079,3.951262 0.8449,0.02943 1.7203,-0.986207 2.5782,-2.991162 z m -6.1828,-55.717966 c -15.0402,-15.04477 -25.1747,-25.71709 -25.1747,-26.51079 0,-1.37134 4.6932,-6.16404 6.0361,-6.16404 0.9811,0 51.82097,50.84187 51.82097,51.82296 0,1.11949 -5.2635,6.034144 -6.46245,6.034144 -0.5748,0 -12.37372,-11.332024 -26.21992,-25.182274 z m 29.44323,22.25114 c 1.38867,-1.21927 2.52486,-2.58366 2.52486,-3.03199 0,-0.87136 -49.99819,-51.17969 -50.86419,-51.17969 -0.998,0 -5.5643,4.44647 -5.5643,5.41827 0,1.22413 49.31529,51.03878 50.51078,51.02226 0.47741,-0.006 2.00419,-1.00959 3.39285,-2.22885 z m 158.68187,0.46401 c -1.97414,-1.80824 -2.52924,-2.76058 -2.07854,-3.56595 1.1654,-2.08245 50.44321,-51.10974 51.3709,-51.10974 1.42108,0 5.97905,4.27929 5.97905,5.61347 0,1.49465 -49.97829,51.529344 -51.47124,51.529344 -0.60869,0 -2.31876,-1.110204 -3.80017,-2.467124 z m 29.7494,-23.09223 c 13.64425,-13.66479 24.80772,-25.26797 24.80772,-25.78483 0,-1.12246 -4.09122,-5.08435 -5.25033,-5.08435 -1.20598,0 -50.46391,49.4604 -50.46391,50.67134 0,1.41488 3.57468,5.04291 4.96876,5.04291 0.62153,0 12.29352,-11.18029 25.93776,-24.84507 z m -160.82878,-0.33348 c -5.25335,-12.26597 -24.53899,-62.74097 -24.61974,-64.43558 -0.0788,-1.65267 0.33132,-2.32543 1.87849,-3.08185 1.08859,-0.53222 2.85644,-1.02727 3.92857,-1.1001 1.87882,-0.12763 2.11225,0.28095 6.4535,11.29614 2.4773,6.28571 8.34336,21.16367 13.0357,33.06213 4.69235,11.89847 8.53154,22.27596 8.53154,23.06109 0,1.01537 -0.94508,1.83262 -3.27351,2.83069 -1.80042,0.77175 -3.5797,1.40319 -3.95394,1.40319 -0.37425,0 -1.26552,-1.36607 -1.98061,-3.03571 z m 5.22334,1.22742 c 1.44007,-0.6017 2.79838,-1.56328 3.01848,-2.13684 0.2201,-0.57358 -1.70142,-6.42949 -4.27006,-13.01314 -16.05696,-41.15559 -20.72363,-52.78817 -21.50963,-53.617 -0.72589,-0.76544 -1.42864,-0.71467 -3.92319,0.28346 -2.72421,1.09001 -2.99905,1.41518 -2.65406,3.14014 0.35925,1.79626 2.99472,8.64586 18.82924,48.9374 5.46959,13.91756 7.04758,17.49998 7.70846,17.49998 0.10035,0 1.36069,-0.4923 2.80076,-1.094 z m 92.02037,0.39895 c -1.94161,-0.88132 -3.03381,-1.84106 -3.03043,-2.66288 0.009,-2.28963 25.31088,-64.67477 26.54607,-65.45391 1.56088,-0.98458 6.25932,0.17524 7.27017,1.79466 0.82202,1.3169 1.30899,-0.0301 -13.25401,36.66006 -9.83559,24.77986 -12.61558,31.07752 -13.70898,31.05572 -0.43291,-0.009 -2.15318,-0.63577 -3.82282,-1.39365 z m 5.57657,-2.24219 c 2.84235,-5.57146 25.02204,-62.27998 24.80467,-63.42003 -0.23493,-1.23223 -4.75406,-2.67615 -6.3995,-2.04473 -1.24126,0.47631 -26.53432,63.91221 -26.01872,65.25586 0.32469,0.84612 4.07896,2.91851 5.59389,3.08788 0.28666,0.0321 1.19551,-1.2635 2.01966,-2.87898 z m -79.3055,-5.81275 c -1.27088,-3.08237 -7.95136,-37.89104 -7.3813,-38.46027 0.85935,-0.85808 6.16878,-1.49407 7.09877,-0.85033 0.7693,0.53251 8.11865,34.40432 8.11865,37.41738 0,0.95706 -0.81969,1.77289 -2.47706,2.46538 -3.41381,1.42638 -4.58667,1.30116 -5.35906,-0.57216 z m 4.44326,0.14101 c 1.90454,-0.52891 2.67857,-1.1394 2.67857,-2.11259 0,-1.81343 -6.99954,-35.61151 -7.56437,-36.52542 -0.36191,-0.58559 -5.81777,-0.21781 -6.56118,0.44228 -0.16417,0.14578 6.148,32.22515 7.34738,37.34043 0.43176,1.84145 0.49852,1.85537 4.0996,0.8553 z m 46.42854,-0.0473 c -1.4973,-0.43233 -2.32142,-1.12115 -2.32142,-1.9403 0,-3.18875 7.24164,-36.88184 8.03531,-37.38578 1.21996,-0.77461 2.93455,-0.72809 5.2223,0.14171 1.84654,0.70205 1.90265,0.87703 1.42815,4.45391 -0.61978,4.67219 -5.24844,29.25387 -6.18574,32.85102 -0.75917,2.91351 -1.65427,3.18579 -6.1786,1.87944 z m 5.11075,-0.51971 c 0.47226,-0.76413 6.85353,-34.75789 6.85353,-36.50954 0,-1.5081 -4.70546,-2.75184 -5.89827,-1.55903 -0.80097,0.80096 -7.80683,34.8797 -7.50341,36.49894 0.29034,1.54942 5.75158,2.85851 6.54815,1.56963 z m -32.09166,-2.39684 c -0.19541,-0.50995 -0.27161,-16.51645 -0.16933,-35.57001 l 0.18598,-34.64283 h 4.64285 4.64285 v 35.35712 35.35711 l -4.47352,0.2129 c -3.16881,0.1508 -4.57716,-0.0575 -4.82883,-0.71429 z m 8.94521,-34.85572 v -34.99998 h -4.28571 -4.28571 v 34.99998 34.99997 h 4.28571 4.28571 z"
           id="path432" /><path
           style="fill:#0d7494;stroke-width:0.714285"
           d="m -997.28203,94.140515 c -1.29972,-1.340963 -2.19172,-2.867747 -1.98223,-3.392854 0.29781,-0.746457 0.39321,-0.728414 0.43729,0.08269 0.031,0.570585 1.08374,2.09737 2.33937,3.392854 1.25564,1.295492 2.12226,2.355434 1.92583,2.355434 -0.19643,0 -1.42055,-1.097156 -2.72026,-2.438127 z m 172.26133,0.613329 c 2.02094,-2.244877 2.52016,-4.20904 1.23214,-4.847818 -0.40268,-0.1997 -0.32232,-0.281664 0.17857,-0.182143 1.84603,0.366785 1.32282,2.963291 -1.02499,5.086603 l -2.35001,2.125299 z m 31.4562,-14.621618 c -1.65442,-1.561606 -2.7643,-2.839284 -2.46638,-2.839284 0.29791,0 1.79713,1.285713 3.33159,2.857141 3.58947,3.675961 3.03608,3.664533 -0.86521,-0.01786 z m -94.40736,-7.192859 c -0.089,-1.951599 1.82566,-4.225133 3.54316,-4.207319 0.55835,0.0057 0.21327,0.416243 -0.76685,0.912121 -1.05266,0.532578 -1.96821,1.770749 -2.23692,3.025184 -0.43506,2.031062 -0.45856,2.042827 -0.53939,0.270014 z m -69.51483,-4.035526 c 3.25973,-0.132657 8.40258,-0.131914 11.42856,0.0014 3.02599,0.133557 0.35895,0.242092 -5.92676,0.241185 -6.28571,-7.14e-4 -8.76152,-0.110178 -5.5018,-0.242828 z m 87.10888,0.0029 c 2.45535,-0.139478 6.47321,-0.139478 8.92856,0 2.45536,0.139479 0.44643,0.2536 -4.46428,0.2536 -4.91071,0 -6.91964,-0.114121 -4.46428,-0.2536 z m -114.99992,-5.716846 c 3.24107,-0.13235 8.54464,-0.13235 11.78571,0 3.24107,0.132357 0.58928,0.240643 -5.89285,0.240643 -6.48214,0 -9.13393,-0.108286 -5.89286,-0.240643 z m 143.57133,0.005 c 2.0625,-0.144285 5.43749,-0.144285 7.49999,0 2.0625,0.144286 0.375,0.262343 -3.75,0.262343 -4.12499,0 -5.81249,-0.118057 -3.74999,-0.262343 z m -80.73016,-0.703206 c 1.26802,-0.157793 3.51802,-0.160386 5,-0.0057 1.48197,0.154629 0.4445,0.283729 -2.3055,0.2869 -2.75,0.0029 -3.96253,-0.123343 -2.6945,-0.281135 z m 80.48372,-22.520105 c -1.35933,-1.605521 -1.3592,-1.605878 0.12411,-0.357143 2.02542,1.705113 4.28178,1.569549 5.61754,-0.337507 0.61155,-0.873121 1.11193,-1.24437 1.11193,-0.824985 0,1.214492 -2.47855,3.126776 -4.05268,3.126776 -0.79211,0 -2.05251,-0.723214 -2.8009,-1.607141 z m -205.11056,-8.211109 c 3.8304,-0.128436 10.0982,-0.128436 13.9286,0 3.8303,0.128436 0.6964,0.233514 -6.9643,0.233514 -7.6607,0 -10.7947,-0.105078 -6.9643,-0.233514 z m 265.02136,0.0064 c 1.87793,-0.147629 4.77078,-0.145843 6.42857,0.0043 1.65779,0.1498 0.1213,0.270586 -3.41441,0.268407 -3.53571,-0.0021 -4.89208,-0.124742 -3.01416,-0.272364 z m -196.62855,-9.831036 c 2.13387,-2.160712 4.04048,-3.928568 4.23691,-3.928568 0.19643,0 -1.38875,1.767856 -3.52262,3.928568 -2.13387,2.160713 -4.04049,3.928569 -4.23691,3.928569 -0.19643,0 1.38875,-1.767856 3.52262,-3.928569 z m 133.57133,-0.714285 c -1.73502,-1.767856 -2.99387,-3.214283 -2.79744,-3.214283 0.19643,0 1.77671,1.446427 3.51173,3.214283 1.73502,1.767856 2.99387,3.214284 2.79744,3.214284 -0.19643,0 -1.77671,-1.446428 -3.51173,-3.214284 z m -44.79567,-24.2856967 c 0.006,-1.9642843 0.14408,-2.6830766 0.30826,-1.5973202 0.16419,1.0857563 0.15979,2.692898 -0.01,3.5714259 -0.16954,0.87852798 -0.30387,-0.00986 -0.29852,-1.9741057 z m 44.30154,-14.4625893 c 5.03179,-0.122957 13.0675,-0.1226 17.85713,7.14e-4 4.78963,0.123393 0.6727,0.223993 -9.14872,0.223557 -9.82142,-4.35e-4 -13.7402,-0.101392 -8.70841,-0.22435 z M -1009.9851,-21.9927 c 0,-2.160713 0.1339,-3.044641 0.2976,-1.964284 0.1636,1.080356 0.1636,2.848212 0,3.928568 -0.1637,1.080357 -0.2976,0.196429 -0.2976,-1.964284 z m 68.32749,-3.035712 c 2.95997,-3.153705 3.60128,-3.720776 3.60128,-3.184434 0,0.114636 -1.52679,1.641421 -3.39286,3.392855 l -3.39285,3.184433 z m 28.78965,0.3803 c 1.08576,-0.164186 2.6929,-0.159793 3.57143,0.0097 0.87853,0.169543 -0.01,0.303871 -1.97411,0.298514 -1.96428,-0.0057 -2.68307,-0.144086 -1.59732,-0.308264 z m 102.66868,-2.743413 c 2.65412,-0.577457 6.2959,-0.678671 5.97916,-0.166178 -0.19205,0.310757 -1.85701,0.527721 -3.69989,0.482149 -1.84289,-0.04557 -2.86856,-0.187757 -2.27927,-0.315971 z m -248.02272,-7.975973 c 1.2838,-0.158971 3.2124,-0.155692 4.2857,0.0073 1.0733,0.162986 0.023,0.29305 -2.3342,0.289043 -2.3572,-0.0043 -3.2353,-0.137357 -1.9515,-0.296329 z m 247.14265,0 c 1.28382,-0.158971 3.21239,-0.155692 4.28572,0.0073 1.07332,0.162986 0.0229,0.29305 -2.33423,0.289043 -2.35714,-0.0043 -3.23531,-0.137357 -1.95149,-0.296329 z m 24.27291,-0.005 c 1.66964,-0.150378 4.40178,-0.150378 6.07142,0 1.66964,0.150386 0.30357,0.273429 -3.03571,0.273429 -3.33928,0 -4.70535,-0.123043 -3.03571,-0.273429 z m 25.71427,-0.717878 c 2.06249,-0.144285 5.43749,-0.144285 7.49999,0 2.0625,0.144286 0.375,0.262343 -3.75,0.262343 -4.12499,0 -5.81249,-0.118057 -3.74999,-0.262343 z m -231.77573,-4.985953 c 1.08576,-0.164186 2.6929,-0.159793 3.57143,0.0097 0.87852,0.169543 -0.01,0.303871 -1.97411,0.298514 -1.96428,-0.0057 -2.68308,-0.144085 -1.59732,-0.308264 z"
           id="path430"
           sodipodi:nodetypes="ssssssssssscssssssssssscccccsssssssssssssscssssssssssssccsccsssssssssscscccsssssssssssscssscsssssssscsssscsssssssssssscss" /><path
           style="fill:#5d561a;stroke-width:0.714285"
           d="m -1091.1598,-16.15609 c -1.3936,-1.539892 -1.6112,-7.264716 -0.325,-8.550894 1.2182,-1.218149 34.9247,-1.218149 36.1428,0 0.4715,0.471428 0.8572,2.38177 0.8572,4.245211 0,5.507632 -0.3593,5.611925 -19.334,5.611925 -14.7473,0 -16.2621,-0.114107 -17.341,-1.306242 z m 34.7982,-0.324564 c 0.9664,-0.706635 1.2021,-1.728927 1.0294,-4.464283 l -0.2241,-3.547761 -17.4498,-0.191564 c -13.4837,-0.148022 -17.5804,0.01436 -18.0247,0.714285 -0.8823,1.390049 -0.7032,6.585252 0.2603,7.548701 1.2617,1.261757 32.6763,1.20755 34.4089,-0.05936 z m 290.448,0.202235 c -1.57024,-1.570241 -1.92169,-5.601081 -0.68916,-7.904094 0.70049,-1.308863 1.67087,-1.381613 18.42856,-1.381613 12.80584,0 17.92577,0.236621 18.54629,0.857142 0.47143,0.471428 0.85714,2.350184 0.85714,4.175004 0,5.663339 -0.0634,5.682132 -19.16337,5.682132 -15.59851,0 -16.6331,-0.08221 -17.97946,-1.428571 z m 35.26606,-0.202235 c 0.96639,-0.706635 1.20211,-1.728927 1.02938,-4.464283 l -0.22404,-3.547761 -17.41125,-0.191472 c -12.24485,-0.134664 -17.70252,0.05029 -18.39284,0.623171 -1.35705,1.12625 -1.23207,5.607603 0.20054,7.190624 1.07895,1.192235 2.59439,1.306242 17.36347,1.306242 12.04044,0 16.50208,-0.234543 17.43474,-0.916521 z m -271.71416,-8.40603 c -0.4314,-0.805985 -0.6838,-2.172055 -0.5609,-3.035712 0.2677,-1.88122 2.3633,-2.215755 19.05462,-3.041769 10.12583,-0.501107 11.13149,-0.675585 13.01141,-2.257434 2.60039,-2.188077 3.31963,-5.694825 1.77905,-8.673965 -1.3428,-2.596698 -1.67846,-2.69172 -12.90735,-3.65379 -4.71428,-0.403907 -10.28535,-0.920328 -12.38016,-1.147592 -7.34037,-0.796357 -8.31107,-4.537976 -3.71943,-14.336383 16.79479,-35.839152 49.28609,-56.683941 88.33406,-56.670711 37.16775,0.0126 70.25916,21.184215 86.99625,55.659526 3.79827,7.823744 4.25472,11.515992 1.63578,13.23199 -1.59596,1.045714 -23.56149,3.962698 -29.83997,3.962698 -3.64842,0 -5.36223,0.905363 -6.73352,3.557126 -2.8905,5.589617 -0.78631,7.493616 8.98728,8.132222 23.39295,1.528492 27.99256,1.93967 29.25481,2.615206 1.59494,0.853585 1.93816,4.86491 0.53621,6.266859 -0.63339,0.633393 -7.26185,0.857142 -25.3926,0.857142 -20.5958,0 -24.87384,-0.174985 -26.64284,-1.08977 -1.15906,-0.599371 -2.10738,-1.387371 -2.10738,-1.751106 0,-0.363735 -2.29718,-2.594991 -5.10485,-4.958346 -10.32792,-8.693537 -22.47776,-12.78142 -35.61048,-11.981335 -12.81599,0.780778 -22.93037,5.260054 -32.97189,14.60199 l -5.56637,5.178567 h -24.63374 c -24.10919,0 -24.65049,-0.03121 -25.41799,-1.465413 z m 55.94617,-4.785853 c 9.36816,-8.824237 19.79346,-13.418205 32.28344,-14.225869 15.38688,-0.994999 27.83796,3.835719 40.1306,15.569718 l 4.41204,4.211525 25.2308,-0.187771 25.2308,-0.187764 0.21505,-2.203692 c 0.12089,-1.23887 -0.21432,-2.560041 -0.76563,-3.01759 -0.58184,-0.482878 -8.22234,-1.284606 -18.78647,-1.971277 -17.56434,-1.1417 -17.82856,-1.182378 -19.48611,-3.000184 -3.73416,-4.095211 0.42106,-10.878671 6.66376,-10.878671 5.00159,0 28.28533,-2.83604 29.75906,-3.624761 5.31923,-2.84677 -7.77109,-27.035188 -22.01875,-40.686428 -24.72439,-23.689419 -58.01124,-32.499659 -91.29511,-24.163659 -16.26712,4.07413 -35.47783,15.66848 -46.18387,27.873614 -8.92722,10.177249 -19.14108,28.046686 -19.16298,33.526247 -0.017,4.288625 1.11142,4.754203 14.49659,5.98056 6.56985,0.601935 12.44677,1.094427 13.05982,1.094427 0.61305,0 2.0542,0.939557 3.20255,2.087913 2.38232,2.38232 2.72396,5.324475 1.00439,8.649744 -1.72001,3.326147 -4.02431,4.016918 -15.34504,4.600054 -15.36612,0.791521 -18.15291,1.204349 -18.44441,2.732305 -0.6254,3.278569 -0.014,3.35854 25.69884,3.35854 h 24.22235 z m 137.87676,-37.141559 c -0.61805,-1.473213 -1.16415,-3.627533 -1.21355,-4.787375 -0.12165,-2.85602 0.43641,-3.137148 32.41016,-16.326888 28.62408,-11.807949 32.10194,-13.078341 33.90717,-12.385601 1.37315,0.526916 3.23566,4.678542 3.23566,7.212426 0,2.30622 -0.65975,2.633005 -24.2857,12.028948 -10.41071,4.14029 -23.85868,9.644886 -29.88439,12.232434 -6.0257,2.587541 -11.42603,4.704625 -12.00072,4.704625 -0.57469,0 -1.55057,-1.205356 -2.16863,-2.678569 z m 11.67779,-1.745149 c 4.64607,-2.040184 18.86949,-7.906251 31.6076,-13.035705 12.73811,-5.129446 23.48545,-9.858857 23.88296,-10.509785 0.95377,-1.561792 -0.62727,-6.943402 -2.21935,-7.554344 -1.7916,-0.687501 -10.89796,2.848269 -56.71901,22.022541 -9.65494,4.040204 -9.66431,4.048861 -8.52715,7.878773 0.96038,3.23454 1.96802,4.907953 2.95528,4.907953 0.31476,0 4.37361,-1.669242 9.01967,-3.709433 z m -228.33812,0.07622 c -4.5179,-1.951434 -17.7995,-7.404708 -29.5147,-12.118398 -26.1525,-10.522592 -26.5076,-10.688042 -26.7558,-12.465441 -0.3227,-2.311362 2.8322,-7.822466 4.624,-8.077436 0.8622,-0.1227 7.2908,2.173841 14.2857,5.103431 6.9948,2.929584 19.3072,7.973223 27.3608,11.208078 19.3955,7.790537 24.1126,9.930235 24.5806,11.149827 0.3925,1.022943 -1.3516,6.272103 -2.6383,7.940295 -1.1411,1.479441 -3.3422,0.974378 -11.9423,-2.740356 z m 12.7552,-0.731578 c 0.8343,-2.007784 1.3182,-3.97224 1.0752,-4.365461 -0.5634,-0.911528 -4.9148,-2.830126 -23.4733,-10.349721 -8.25,-3.342754 -20.7434,-8.470336 -27.7631,-11.394613 -7.0197,-2.924283 -13.4395,-5.219142 -14.2663,-5.099702 -1.0716,0.15483 -1.8818,1.239298 -2.8222,3.777575 -1.2966,3.500161 -1.2952,3.579668 0.087,4.698589 0.7731,0.626 10.3579,4.722339 21.2996,9.102972 10.9417,4.380632 24.7154,10.037078 30.6083,12.569877 5.8928,2.532798 11.3946,4.628918 12.2262,4.658039 1.1638,0.04079 1.8611,-0.787371 3.029,-3.597555 z m 183.25999,-30.580584 c -2.67744,-1.659123 -5.52808,-4.752663 -5.19904,-5.642013 0.14031,-0.37925 11.63003,-12.29507 25.5327,-26.47961 15.28186,-15.59168 25.80253,-25.79008 26.60507,-25.79008 1.88483,0 7.16209,4.95414 6.90198,6.47938 -0.22001,1.29013 -48.40174,50.9314 -50.54966,52.080929 -0.82724,0.442728 -1.8576,0.239664 -3.29105,-0.648606 z m 28.08804,-25.229383 c 13.85026,-13.84612 25.18228,-25.70568 25.18228,-26.35456 0,-1.33418 -4.55797,-5.61347 -5.97905,-5.61347 -0.92769,0 -50.2055,49.02729 -51.3709,51.10974 -0.4507,0.80537 0.1044,1.75771 2.07854,3.56595 1.48141,1.35692 3.19148,2.467123 3.80017,2.467123 0.60867,0 12.43872,-11.328643 26.28896,-25.174783 z m -218.57123,0.3497 c -17.8542,-17.85932 -25.532,-26.00481 -25.532,-27.08717 0,-1.71889 5.2604,-6.65913 7.0907,-6.65913 1.5091,0 52.19496,50.81188 52.19496,52.32477 0,1.48112 -5.59865,6.960898 -7.11189,6.960898 -0.61041,0 -12.59917,-11.492708 -26.64177,-25.539368 z m 30.33069,22.18012 c 1.48978,-1.45473 2.70868,-2.97986 2.70868,-3.38918 0,-0.98109 -50.83987,-51.82296 -51.82097,-51.82296 -1.3429,0 -6.0361,4.7927 -6.0361,6.16404 0,1.57719 49.82654,51.693063 51.39462,51.693063 0.57479,0 2.26399,-1.190233 3.75377,-2.644963 z m 27.89923,-20.34481 c -0.87141,-1.05577 -6.925,-16.10094 -18.73463,-46.56179 -5.4021,-13.93375 -7.86195,-21.1552 -7.58373,-22.26372 0.302,-1.20328 1.38444,-1.96375 4.06015,-2.85248 3.49728,-1.16161 3.69926,-1.1566 4.87762,0.12088 0.67609,0.73297 2.13644,3.74338 3.24523,6.68981 1.10878,2.94642 6.80484,17.5426 12.6579,32.43594 5.85307,14.89334 10.54598,27.7342 10.4287,28.53524 -0.38334,2.61823 -7.46267,5.69958 -8.95124,3.89612 z m 5.10735,-1.27054 c 2.32843,-0.99807 3.27351,-1.81532 3.27351,-2.83069 0,-0.78513 -3.83919,-11.16262 -8.53154,-23.06109 -4.69234,-11.89846 -10.5584,-26.77642 -13.0357,-33.06213 -4.34125,-11.01519 -4.57468,-11.42377 -6.4535,-11.29614 -1.07213,0.0728 -2.83998,0.56788 -3.92857,1.1001 -1.54717,0.75642 -1.95725,1.42918 -1.87849,3.08185 0.0554,1.16281 5.32498,15.45347 11.71016,31.75703 13.67544,34.91807 14.00739,35.71426 14.89019,35.71426 0.37424,0 2.15352,-0.63144 3.95394,-1.40319 z m 91.10337,0.51033 c -2.76544,-1.39453 -3.17373,-1.89062 -3.08628,-3.75 0.14034,-2.98376 24.9195,-64.77281 26.41397,-65.8656 2.28827,-1.67322 8.84236,0.97057 8.84236,3.56682 0,1.70368 -24.39634,63.35121 -26.13809,66.04878 -0.57072,0.88393 -1.4443,1.60714 -1.94129,1.60714 -0.49698,0 -2.33779,-0.72321 -4.09067,-1.60714 z m 7.02396,-3.92857 c 1.21453,-2.65178 6.03566,-14.46427 10.71363,-26.24998 14.563,-36.69011 14.07603,-35.34316 13.254,-36.66006 -1.01084,-1.61942 -5.70928,-2.77924 -7.27016,-1.79466 -1.23519,0.77914 -26.53667,63.16428 -26.54607,65.45391 -0.005,1.19011 4.76751,4.01496 6.85325,4.05653 0.43292,0.009 1.78082,-2.15395 2.99535,-4.80574 z m -81.19137,-3.86772 c -1.119,-2.94317 -8.04295,-38.60499 -7.67936,-39.5525 0.52954,-1.37994 7.51861,-2.13797 8.6934,-0.94289 0.9258,0.94179 7.23388,29.7481 7.97881,36.43582 0.42257,3.79377 -0.29278,4.49691 -5.40694,5.3147 -2.64669,0.42322 -2.99403,0.30165 -3.58591,-1.25513 z m 6.00333,-0.20297 c 1.65737,-0.69249 2.47706,-1.50832 2.47706,-2.46538 0,-3.01306 -7.34935,-36.88487 -8.11865,-37.41738 -0.92999,-0.64374 -6.23942,-0.008 -7.09877,0.85033 -0.57006,0.56923 6.11042,35.3779 7.3813,38.46027 0.77239,1.87332 1.94525,1.99854 5.35906,0.57216 z m 45.33417,0.10181 c -1.58784,-0.54148 -2.57384,-1.37377 -2.70238,-2.28111 -0.35125,-2.47952 6.92701,-37.03073 8.03371,-38.13743 0.82312,-0.82312 1.75717,-0.90274 4.46199,-0.38037 2.98029,0.57558 3.44947,0.90748 3.6423,2.57652 0.25719,2.22611 -6.0408,35.92153 -7.07539,37.85468 -0.79422,1.48401 -2.75445,1.59734 -6.36023,0.36771 z m 6.35717,-2.45968 c 0.9373,-3.59715 5.56596,-28.17883 6.18574,-32.85102 0.4745,-3.57688 0.41839,-3.75186 -1.42815,-4.45391 -2.28775,-0.8698 -4.00234,-0.91632 -5.2223,-0.14171 -0.79367,0.50394 -8.03531,34.19703 -8.03531,37.38578 0,0.81915 0.82412,1.50797 2.32142,1.9403 4.52433,1.30635 5.41943,1.03407 6.1786,-1.87944 z m -33.70978,0.0878 c -0.27748,-0.27748 -0.50451,-16.32228 -0.50451,-35.65512 0,-29.40805 0.16485,-35.28742 1.00906,-35.98806 0.60687,-0.50365 2.81329,-0.75204 5.53571,-0.62317 l 4.52665,0.21427 v 36.07141 36.0714 l -5.0312,0.20689 c -2.76717,0.11379 -5.25824,-0.0201 -5.53571,-0.29762 z m 9.85262,-35.98067 v -35.35712 h -4.64285 -4.64285 l -0.18598,34.64283 c -0.10228,19.05356 -0.0261,35.06006 0.16933,35.57001 0.25167,0.65677 1.66002,0.86509 4.82883,0.71429 l 4.47352,-0.2129 z"
           id="path428" /><path
           style="fill:#0a4e61;stroke-width:0.714285"
           d="m -924.48491,127.27821 c -8.20791,-1.14285 -18.5138,-3.58543 -25.95979,-6.15267 -9.82312,-3.38683 -23.53639,-9.9868 -23.15126,-11.14232 0.2396,-0.71889 13.15602,-0.94204 62.92052,-1.08706 60.65592,-0.17675 62.61904,-0.14078 62.61904,1.14722 0,2.79114 -24.98947,12.58664 -40.35711,15.81938 -8.14468,1.7133 -28.26259,2.50275 -36.0714,1.41545 z m 36.68771,-2.43342 c 13.86634,-2.95142 39.02652,-12.39832 39.02652,-14.6533 0,-0.5256 -18.81348,-0.75571 -61.78567,-0.75571 -43.39364,0 -61.78567,0.22742 -61.78567,0.76397 0,1.16088 13.56968,7.28961 23.21427,10.48468 15.21861,5.04166 25.76704,6.63193 41.42854,6.24573 8.67206,-0.21385 13.47231,-0.71683 19.90201,-2.08537 z M -994.12772,97.59822 c -4.59153,-2.388012 -6.96058,-5.873303 -5.32869,-7.839566 0.74391,-0.896363 12.75556,-1.037149 88.48751,-1.037149 67.20178,0 87.82656,0.199793 88.48391,0.857142 0.47143,0.471429 0.85714,1.372657 0.85714,2.002735 0,1.256984 -3.73517,5.07471 -6.20303,6.340124 -1.12475,0.576721 -24.24949,0.798763 -82.85709,0.795592 -72.26222,-0.0039 -81.53504,-0.128257 -83.43975,-1.118878 z m 166.27282,-0.570378 c 2.99387,-1.275671 5.70915,-4.259061 5.38908,-5.921189 -0.2437,-1.265556 -3.43455,-1.320899 -87.02887,-1.509584 -47.72674,-0.107722 -87.4991,-0.02121 -88.38303,0.192178 -0.88393,0.213429 -1.60714,0.801014 -1.60714,1.305749 0,1.012585 3.82688,4.846225 6.07142,6.082153 1.01563,0.559235 24.81859,0.792899 82.34432,0.808342 66.98736,0.018 81.31138,-0.146864 83.21422,-0.957649 z M -1045.3827,83.34388 c -3.5295,-2.398348 -5.0471,-5.506517 -5.0471,-10.336649 0,-6.537203 2.9576,-10.376764 9.3113,-12.087613 4.825,-1.299256 9.0697,0.135814 13.2272,4.471976 l 3.4158,3.562618 44.02801,-0.489935 c 49.39626,-0.549664 46.67687,-0.814342 46.67687,4.542954 0,5.15931 2.59228,4.875561 -46.86112,5.129432 l -44.35726,0.227707 -2.9995,2.710448 c -3.7518,3.390162 -5.5443,4.075261 -10.6627,4.075261 -3.1803,0 -4.6562,-0.396007 -6.7315,-1.806199 z m 12.552,0.293179 c 0.8581,-0.439307 2.7809,-1.966092 4.2728,-3.392855 l 2.7127,-2.594119 44.73322,-0.194443 c 31.22208,-0.135714 45.01925,-0.431807 45.68015,-0.980321 1.16911,-0.970271 1.24804,-5.738403 0.11377,-6.872673 -0.62652,-0.626514 -11.84283,-0.722 -45.22189,-0.384964 l -44.38875,0.448199 -2.8138,-3.044333 c -3.6632,-3.963362 -5.8711,-5.042882 -10.3138,-5.042882 -4.0633,0 -6.6377,1.084242 -9.2741,3.905904 -1.4814,1.585499 -1.8174,2.757441 -2.0369,7.103131 -0.254,5.031139 -0.1844,5.293624 2.0922,7.886565 1.2953,1.475221 3.0155,2.949684 3.8226,3.276591 2.1661,0.877256 8.8253,0.805906 10.6218,-0.1138 z m -8.797,-7.058402 c -3.0421,-3.042148 -0.8186,-8.571423 3.4469,-8.571423 2.5272,0 5.1245,2.648034 5.1245,5.224604 0,2.543619 -2.3367,4.775389 -5,4.775389 -1.1904,0 -2.7777,-0.634921 -3.5714,-1.42857 z m 6.5509,-0.46785 c 2.8084,-2.541519 0.6692,-7.389287 -3.2607,-7.389287 -2.0074,0 -4.0045,2.075484 -4.0045,4.161604 0,3.820711 4.4335,5.79036 7.2652,3.227683 z m 245.94787,8.40503 c -0.7863,-0.339329 -2.79559,-1.942585 -4.4651,-3.562783 l -3.03547,-2.945827 h -44.642 c -43.68964,0 -44.67249,-0.0305 -46.07058,-1.42857 -1.86176,-1.861756 -1.83598,-5.306875 0.0538,-7.196695 1.47907,-1.47907 1.57865,-1.481249 44.14381,-0.965321 23.46377,0.2844 43.79853,0.303772 45.18836,0.043 1.69052,-0.317142 2.85185,-1.081149 3.50853,-2.308155 0.53986,-1.008749 2.4173,-2.675477 4.17207,-3.70384 6.12499,-3.589491 14.06467,-2.017649 17.72164,3.508404 1.59622,2.412048 1.77098,3.304591 1.51928,7.759116 -0.27177,4.809682 -0.4182,5.167311 -3.29246,8.04158 -2.92629,2.926291 -3.14886,3.013033 -8.19016,3.192026 -2.85017,0.101193 -5.82546,-0.09364 -6.61175,-0.432971 z m 12.32901,-1.504756 c 3.95951,-2.414141 5.2856,-5.323389 5.0036,-10.977157 -0.2289,-4.589268 -0.40988,-5.053432 -2.83777,-7.278437 -4.04905,-3.710676 -9.68508,-4.60069 -14.49378,-2.288777 -0.78571,0.37775 -2.80802,2.152863 -4.49402,3.94469 l -3.06544,3.257876 -44.51312,-0.462028 c -42.39704,-0.440057 -44.5688,-0.400486 -45.68451,0.832371 -1.47149,1.62597 -1.49242,3.620011 -0.0595,5.665817 l 1.11193,1.587506 h 44.61828 44.61829 l 3.01974,2.747369 c 4.27897,3.893005 5.34067,4.349662 10.16261,4.37109 3.0451,0.0135 4.9596,-0.391821 6.61367,-1.40032 z m -9.64938,-6.091174 c -2.25055,-1.591549 -2.26223,-6.229967 -0.0196,-7.800745 4.88922,-3.42454 10.68356,1.921327 7.18491,6.628817 -1.68858,2.272012 -4.87316,2.792876 -7.16527,1.171928 z m 5.5005,-0.322407 c 1.90073,-1.017242 2.46519,-4.117097 1.12277,-6.165903 -2.17751,-3.32329 -7.51613,-1.451449 -7.51613,2.63532 0,3.495754 3.17862,5.251067 6.39336,3.530583 z M -993.30701,63.364381 c -1.55016,-0.510321 -3.53384,-2.612191 -6.94689,-7.360788 -2.6274,-3.655583 -6.2918,-8.596972 -8.1431,-10.980863 l -3.3659,-4.334361 -21.2844,0.299392 -21.2844,0.299386 -1.854,2.203298 c -2.5907,3.078898 -6.0286,4.516804 -10.7991,4.516804 -7.5847,0 -11.788,-3.566319 -12.362,-10.488735 -0.7914,-9.542908 5.4906,-15.415275 15.1214,-14.13549 3.1829,0.422957 4.1087,0.950999 6.9858,3.984476 l 3.3166,3.496904 h 23.6364 23.6364 l 2.2021,1.967656 c 1.2113,1.082214 5.15484,6.305424 8.76359,11.607134 l 6.56135,9.639479 77.68051,0.181743 c 73.31077,0.171528 77.73936,0.111257 78.7269,-1.071428 0.57552,-0.689242 2.96357,-3.985311 5.30678,-7.324595 2.34321,-3.339283 5.32576,-7.574366 6.6279,-9.411286 4.08665,-5.765074 3.15759,-5.588703 29.4397,-5.588703 h 23.28035 l 3.39513,-3.507983 c 2.77257,-2.864705 3.99387,-3.596462 6.66021,-3.990504 9.29466,-1.373613 16.79396,5.836217 15.29557,14.705146 -1.07324,6.352396 -5.65587,9.933193 -12.71474,9.935079 -4.78615,0.0014 -6.24367,-0.610328 -9.98634,-4.190483 l -2.71187,-2.594119 -21.36134,-0.217514 -21.36135,-0.217515 -3.83879,5.217511 c -2.11133,2.869634 -5.45955,7.631766 -7.44048,10.582528 -1.98094,2.950755 -4.42875,5.807639 -5.43959,6.348624 -1.52712,0.817285 -15.5118,0.997121 -82.70529,1.063549 -52.20921,0.05161 -81.6363,-0.173185 -83.03711,-0.634342 z m 165.63171,-1.378592 c 0.92344,-0.605064 2.1889,-1.82812 2.81211,-2.717905 0.62322,-0.889778 3.57567,-5.153497 6.56101,-9.474922 2.98535,-4.321425 5.93049,-8.258923 6.54478,-8.749994 0.83743,-0.669463 6.45933,-0.892856 22.46986,-0.892856 h 21.35299 l 2.26047,2.566577 c 3.12336,3.546297 5.43523,4.576275 10.27186,4.576275 7.76006,0 12.08428,-4.352768 11.89545,-11.973991 -0.19848,-8.010273 -6.95046,-12.817805 -15.37277,-10.945678 -2.34402,0.521035 -3.80607,1.490477 -5.96263,3.953654 l -2.85714,3.263362 -23.71016,-0.0057 c -23.56834,-0.0057 -23.7212,0.0036 -25.55884,1.601327 -1.01677,0.883928 -4.97955,6.107138 -8.80616,11.607134 l -6.95747,9.999993 -77.96515,0.181722 c -68.07553,0.158678 -78.09935,0.0475 -79.02314,-0.876271 -0.5819,-0.5819 -3.99372,-5.402918 -7.58182,-10.713385 -4.10095,-6.069467 -7.29625,-10.054807 -8.60355,-10.730857 -1.7288,-0.894071 -6.0539,-1.07557 -25.6284,-1.07557 h -23.5486 l -1.5558,-2.517313 c -2.5529,-4.130718 -8.4155,-6.03991 -13.945,-4.541304 -5.3016,1.436842 -8.1893,5.620375 -8.1844,11.857099 0.01,6.776638 4.4697,10.910449 11.783,10.910449 4.6836,0 7.728,-1.375878 10.7047,-4.837754 l 1.6703,-1.942613 21.764,-0.240521 21.764,-0.240528 5.6199,7.667987 c 3.091,4.21739 6.59288,8.986336 7.78207,10.597657 4.04356,5.478903 -2.87057,5.088489 87.36739,4.933296 71.54243,-0.123043 81.15342,-0.267185 82.63714,-1.239356 z m -242.3649,-22.23332 c -1.1774,-0.824721 -1.5875,-1.829013 -1.5875,-3.888068 0,-3.077012 1.8593,-4.999997 4.8343,-4.999997 2.0651,0 5.1657,3.001162 5.1657,4.999997 0,1.998834 -3.1006,4.999996 -5.1657,4.999996 -0.9126,0 -2.3736,-0.500371 -3.2468,-1.111928 z m 5.0666,-0.423571 c 0.8581,-0.451671 1.7964,-1.174885 2.085,-1.607142 2.449,-3.667668 -3.7479,-8.175101 -6.9023,-5.020617 -1.6661,1.666048 -1.4202,5.016582 0.465,6.337045 1.8985,1.329749 2.3243,1.358185 4.3523,0.290714 z m 306.65632,0.05507 c -3.57516,-2.812206 -1.56982,-8.519566 2.99345,-8.519566 2.50731,0 5.1245,2.641834 5.1245,5.172761 0,2.032627 -2.89462,4.827232 -4.99999,4.827232 -0.67976,0 -2.08284,-0.666185 -3.11796,-1.480413 z m 5.81616,-0.3458 c 3.30824,-2.31717 1.12034,-7.45948 -3.17377,-7.45948 -1.8382,0 -3.81014,2.464205 -3.81014,4.761282 0,1.671049 2.40609,3.81014 4.28571,3.81014 0.61088,0 1.82508,-0.500371 2.6982,-1.111928 z m -234.0021,1.601608 c -2.85467,-3.038662 -1.35794,-8.692965 4.21226,-15.912974 5.36182,-6.949931 17.19843,-14.574804 22.6275,-14.576118 3.15965,-7.15e-4 5.33005,2.246255 5.04211,5.220117 -0.20189,2.085177 -0.75876,2.553077 -6.53818,5.493596 -7.92711,4.03324 -13.79339,9.6144 -16.80476,15.987982 -2.7624,5.846638 -5.47434,7.049502 -8.53893,3.787397 z m 5.51325,-0.04029 c 0.44697,-0.538571 1.79323,-2.941498 2.9917,-5.339832 2.72544,-5.454081 9.10254,-11.376263 15.92602,-14.78991 6.09678,-3.05012 6.87307,-3.674648 6.87307,-5.529404 0,-2.247991 -2.0888,-4.075925 -4.65759,-4.075925 -3.62292,0 -11.84945,4.570582 -17.23361,9.574836 -8.32355,7.736244 -12.21513,16.318788 -8.90177,19.63215 1.72914,1.729141 3.82201,1.950077 5.00218,0.528064 z m 139.51548,1.212028 c -0.50495,-0.202771 -1.99972,-2.507756 -3.3217,-5.122175 -3.19281,-6.31421 -9.22661,-12.19652 -16.26868,-15.86021 -5.75411,-2.993619 -7.38363,-4.746854 -6.62715,-7.130302 1.64584,-5.1855606 8.21492,-4.6476682 17.13497,1.403042 1.17822,0.799221 4.07251,3.368883 6.43178,5.71036 8.12244,8.061223 11.66788,16.596024 8.29521,19.9687 -1.43709,1.437084 -3.63354,1.838127 -5.64443,1.030585 z m 4.96898,-1.414949 c 1.88549,-1.706342 1.61617,-4.398047 -0.95484,-9.543093 -4.44226,-8.889744 -16.94284,-19.133429 -24.19986,-19.830736 -3.051,-0.293164 -3.52048,-0.136364 -4.6211,1.543406 -1.12582,1.718228 -1.13316,2.01002 -0.0905,3.601326 0.62403,0.952385 3.31278,2.800598 5.97501,4.10714 5.96374,2.926826 13.54609,10.192993 15.89551,15.232668 2.86487,6.145295 5.09861,7.511194 7.99578,4.889289 z m -87.26512,-10.242082 c -11.17723,-2.979933 -21.65255,-9.8939 -27.91149,-18.422258 -1.73795,-2.3681124 -3.76384,-4.6857393 -4.50198,-5.1502818 -0.73813,-0.4645425 -7.52277,-2.0883628 -15.07697,-3.6084974 -7.5542,-1.5201346 -18.81634,-3.90224716 -25.02698,-5.293589 -12.99175,-2.9104907 -15.44245,-3.0624264 -18.16185,-1.1260135 -6.8058,4.8461394 -19.0178,3.02816926 -23.4067,-3.4844903 -1.4649,-2.1738556 -1.6282,-3.256476 -1.6282,-10.794513 0,-5.900318 0.2682,-8.60093 0.9068,-9.130965 0.4988,-0.41395 2.347,-0.855092 4.1072,-0.980321 3.1096,-0.221228 3.2064,-0.300535 3.4156,-2.800648 l 0.2154,-2.572962 -4.4273,-0.46275 c -2.435,-0.254507 -7.5433,-0.462742 -11.3518,-0.462742 -3.8085,0 -11.8274,-0.212215 -17.8198,-0.471586 -10.5674,-0.457392 -10.9186,-0.522671 -11.6688,-2.169241 -1.4732,-3.233276 0.072,-3.723276 15.2339,-4.830718 28.1889,-2.058963 27.2778,-1.948356 30.6023,-3.715433 4.0238,-2.138841 7.5919,-2.116199 11.7117,0.07431 3.4046,1.810235 8.1186,2.360948 31.42502,3.671233 6.19087,0.34805 8.80406,0.783078 9.86513,1.642278 1.95517,1.583206 1.10035,3.524004 -1.74867,3.970232 -3.69099,0.578107 -22.79778,1.828313 -28.07138,1.836785 -2.6924,0.0043 -6.1007,0.207093 -7.5739,0.450599 -2.5574,0.422714 -2.6786,0.567736 -2.6786,3.20642 v 2.763683 h 3.5463 c 4.1836,0 5.0251,1.008864 5.0251,6.024467 v 3.261241 l 27.32144,0.125021 c 15.02678,0.06879 28.60467,0.03836 30.17311,-0.06757 2.5372,-0.171357 3.4141,-0.795657 7.95117,-5.660732 5.66868,-6.078488 10.56776,-9.346836 17.87626,-11.925877 6.63684,-2.342034 21.33882,-2.533527 27.65565,-0.360221 7.71715,2.655091 12.75756,5.854346 18.83014,11.951913 3.23359,3.24689 6.60859,6.061374 7.5,6.254417 0.89141,0.193035 14.31715,0.120342 29.835,-0.16155 l 28.21426,-0.512543 0.21949,-3.928568 c 0.12072,-2.160713 0.52396,-4.235383 0.8961,-4.610383 0.37213,-0.374992 2.20193,-0.857135 4.06622,-1.071427 3.2093,-0.368886 3.40155,-0.513364 3.61381,-2.715956 0.13997,-1.452363 -0.12838,-2.444798 -0.71429,-2.641655 -0.51616,-0.173428 -9.5874,-0.795921 -20.15831,-1.383306 -15.52685,-0.862778 -19.43604,-1.284185 -20.34502,-2.19317 -1.57029,-1.570292 -0.26386,-3.45469 2.84914,-4.109604 1.33651,-0.281178 10.30502,-1.024549 19.93001,-1.651935 15.24224,-0.993535 17.82253,-1.333599 19.99999,-2.635862 3.33647,-1.99542 8.38345,-1.945848 11.87918,0.116679 2.68402,1.583613 11.52435,2.647183 33.47793,4.02769 9.06459,0.570006 11.07142,1.131284 11.07142,3.096476 0,2.947412 -2.47752,3.629426 -13.19464,3.632219 -5.5108,0.0014 -14.59998,0.212149 -20.19819,0.468249 l -10.17857,0.465636 v 3.460319 3.460318 h 3.07143 c 1.68928,0 3.45714,0.385714 3.92857,0.857143 1.33866,1.338663 1.13485,15.127424 -0.26727,18.0821792 -3.23232,6.8116165 -15.77615,9.4174361 -23.64562,4.9120822 -1.71845,-0.9838279 -4.14306,-1.7085631 -5.71604,-1.7085631 -2.42643,0 -12.64756,1.9825272 -42.29366,8.2034298 -4.86815,1.021535 -9.41954,2.2554126 -10.11418,2.7419623 -0.69465,0.4865496 -2.71183,2.8032337 -4.48263,5.1481896 -6.43788,8.525244 -14.06234,13.953404 -24.58457,17.502708 -6.02942,2.033813 -8.12127,2.38292 -15.5388,2.593249 -6.87394,0.194914 -9.63235,-0.03979 -13.92856,-1.1852 z m 24.70715,-0.734999 c 12.80021,-3.273519 22.0045,-9.407058 29.688,-19.783443 1.51843,-2.0506057 3.36762,-4.0531399 4.10929,-4.4500754 1.84842,-0.9892421 44.11114,-9.8710642 52.30784,-10.9928777 1.97462,-0.2702427 3.21375,0.062786 5.16374,1.387849 6.79836,4.61959663 18.39947,3.1986048 22.87779,-2.8022408 1.25572,-1.6826417 1.54346,-3.2452401 1.74757,-9.4904141 0.28555,-8.73693 -0.10832,-9.566693 -4.54109,-9.566693 -2.12264,0 -3.18226,-0.343636 -3.48396,-1.129849 -0.61555,-1.604099 -0.5174,-5.489304 0.16588,-6.565931 0.4339,-0.683686 5.5397,-1.020307 20.52476,-1.353199 10.97095,-0.243715 20.69379,-0.719043 21.6063,-1.056293 2.13735,-0.789906 1.78499,-2.91074 -0.59462,-3.579054 -0.97832,-0.274764 -10.19658,-1.115456 -20.485,-1.86822 -15.36611,-1.124264 -19.06291,-1.602363 -20.70388,-2.677562 -3.66904,-2.404049 -7.29257,-2.623306 -11.32811,-0.68545 -3.23541,1.553635 -5.55022,1.863292 -23.11927,3.092683 -14.59886,1.021557 -19.67647,1.612978 -20.12877,2.344534 -1.48444,2.400999 0.94097,2.864198 20.50009,3.915055 10.56027,0.567378 19.6209,1.180427 20.13473,1.362335 0.62187,0.220156 0.8607,1.34797 0.71429,3.37299 l -0.21996,3.042248 -3.33595,0.215385 c -1.83477,0.118457 -3.66373,0.610343 -4.06437,1.093078 -0.40063,0.482735 -0.82802,2.635812 -0.94976,4.784611 l -0.22134,3.906918 -28.21427,0.531279 c -15.51784,0.292207 -29.17855,0.372728 -30.35712,0.178949 -1.49933,-0.246528 -3.86816,-2.125869 -7.88791,-6.257995 -6.10348,-6.274088 -12.1633,-10.065686 -19.56314,-12.240541 -4.98329,-1.46462 -19.73639,-1.544863 -24.38891,-0.132657 -7.6938,2.335341 -13.6897,6.105074 -19.82733,12.465798 l -5.95306,6.169453 -28.68978,0.210542 c -15.77937,0.115793 -29.413,0.02929 -30.2969,-0.192178 -1.4166,-0.354978 -1.6072,-0.856478 -1.6072,-4.230226 0,-4.506125 -0.6721,-5.251553 -5.014,-5.560453 l -3.2002,-0.227678 -0.2249,-3.143491 c -0.1454,-2.031377 0.1073,-3.35419 0.7143,-3.739061 0.5165,-0.327564 4.3141,-0.620228 8.4391,-0.650371 4.125,-0.03014 12.71287,-0.44255 19.08411,-0.916457 11.55256,-0.859306 14.34157,-1.624941 12.52749,-3.439026 -0.8184,-0.818399 -5.63898,-1.304706 -26.9687,-2.720662 -9.9912,-0.66325 -11.8778,-0.989306 -15,-2.59237 -4.1705,-2.141291 -8.2867,-2.062691 -11.5419,0.220393 -1.7477,1.225728 -4.4104,1.589485 -19.1724,2.61912 -22.8389,1.592991 -24.3981,1.777855 -25.4243,3.014362 -0.7052,0.849713 -0.6772,1.26647 0.1403,2.083905 0.8153,0.815314 4.9886,1.104364 20.6529,1.430464 10.7971,0.224771 20.6926,0.570142 21.9901,0.767485 2.3219,0.353178 2.3555,0.411464 2.1428,3.712261 l -0.2161,3.353448 -3.9285,0.357142 -3.9286,0.357143 -0.1931,8.21428 c -0.1609,6.845316 0.026,8.6309219 1.1203,10.7142776 3.1079,5.9157885 14.8445,8.1371512 21.7,4.1071398 4.2523,-2.499741 6.1606,-2.476141 18.27087,0.2259213 5.3989,1.2046063 16.60204,3.58020454 24.89587,5.2790962 8.29384,1.6988916 15.75492,3.4502617 16.58019,3.8919329 0.82526,0.4416711 2.44956,2.1642841 3.60955,3.8280329 2.66104,3.8166973 9.45835,10.3806923 13.6753,13.2058903 4.01543,2.690198 10.92072,5.630032 16.27249,6.927802 6.2471,1.514878 16.76393,1.362485 23.41845,-0.339335 z M -917.69982,17.0618 c -6.99242,-2.303877 -12.19822,-7.8416659 -14.3591,-15.2748033 -2.05264,-7.0608735 0.4612,-15.3191527 6.24658,-20.5206997 4.16947,-3.748711 8.61971,-5.401853 14.5417,-5.401853 6.41115,0 10.76512,1.743385 15.04658,6.024839 4.33634,4.336339 6.02508,8.6399718 6.02427,15.3523884 -7.1e-4,8.3879439 -4.51417,15.4587536 -11.9864,18.7791796 -3.93909,1.750406 -11.76635,2.275605 -15.51363,1.040949 z m 15.75397,-1.939091 c 6.63687,-3.19337 10.36121,-8.9615298 10.87613,-16.8446812 0.45232,-6.9246736 -1.08547,-11.3931698 -5.46998,-15.8945738 -4.3841,-4.500983 -8.96976,-6.11251 -16.07311,-5.648518 -8.14076,0.53175 -13.9893,4.229055 -17.25804,10.910121 -5.6944,11.63893434 0.88077,25.668046 13.60022,29.0181 3.26734,0.860557 11.08105,0.02029 14.32478,-1.540448 z m -15.03907,-6.5204173 c -4.88449,-2.7015123 -7.81014,-7.83018 -7.32817,-12.8462621 1.20613,-12.5524196 16.94579,-16.2777596 24.17829,-5.7226315 1.3659,1.9934057 1.7213,3.4309403 1.7213,6.9623949 0,3.8884472 -0.2728,4.7873751 -2.16075,7.1199948 -3.04039,3.7564973 -6.30818,5.324439 -11.04239,5.298339 -2.16684,-0.011928 -4.58257,-0.3772711 -5.36828,-0.8118351 z m 12.08777,-1.5963988 c 3.41326,-2.0003057 6.1265,-6.35698112 6.1265,-9.8373643 0,-5.5568603 -4.93509,-11.4054626 -10.50585,-12.4505476 -5.68681,-1.06685 -13.13799,3.784454 -14.15724,9.2174571 -2.02109,10.773385 9.08886,18.6071939 18.53659,13.0704548 z"
           id="path426"
           sodipodi:nodetypes="ssssssssssssssssssssssssssssssssscssscssssscsssscsssssssssssssssssscsssssssssssssssssscssscccsssssssssssssssscccssssscccsscssssscssssscccsssssssssscssssscssscssssscsscsscccssssssssssssssssssssssssssssssssssssssssssssssssssssssssssssssssssssssscssssssssssssscsscsssssssscssssssssssssssscccssssssssssssssssssssssssssssssssscssscsssssscsssscsssssssssssssscccscssssssssssssscssssssssssssssssssssss" /></g></g></g></svg>
